<?xml version="1.0" encoding="UTF-8" standalone="no"?>
<!DOCTYPE svg PUBLIC "-//W3C//DTD SVG 1.1//EN"
 "http://www.w3.org/Graphics/SVG/1.1/DTD/svg11.dtd">
<!-- Generated by graphviz version 9.0.0 (20230911.1827)
 -->
<!-- Title: G Pages: 1 -->
<svg width="1608pt" height="980pt"
 viewBox="0.00 0.00 1607.60 980.00" xmlns="http://www.w3.org/2000/svg" xmlns:xlink="http://www.w3.org/1999/xlink">
<g id="graph0" class="graph" transform="scale(1 1) rotate(0) translate(4 976)">
<title>G</title>
<polygon fill="white" stroke="none" points="-4,4 -4,-976 1603.6,-976 1603.6,4 -4,4"/>
<!-- l2007 -->
<g id="node1" class="node">
<title>l2007</title>
<ellipse fill="lightblue" stroke="lightblue" cx="33.03" cy="-954" rx="33.03" ry="18"/>
<text text-anchor="middle" x="33.03" y="-949.8" font-family="Times,serif" font-size="14.00">l2007</text>
</g>
<!-- l2008 -->
<g id="node2" class="node">
<title>l2008</title>
<ellipse fill="lightblue" stroke="lightblue" cx="33.03" cy="-882" rx="33.03" ry="18"/>
<text text-anchor="middle" x="33.03" y="-877.8" font-family="Times,serif" font-size="14.00">l2008</text>
</g>
<!-- l2007&#45;&gt;l2008 -->
<g id="edge1" class="edge">
<title>l2007&#45;&gt;l2008</title>
<path fill="none" stroke="black" d="M33.03,-935.7C33.03,-928.41 33.03,-919.73 33.03,-911.54"/>
<polygon fill="black" stroke="black" points="36.53,-911.62 33.03,-901.62 29.53,-911.62 36.53,-911.62"/>
</g>
<!-- 2919327208 -->
<g id="node39" class="node">
<title>2919327208</title>
<ellipse fill="none" stroke="black" cx="500.03" cy="-162" rx="27" ry="18"/>
<text text-anchor="middle" x="500.03" y="-157.8" font-family="Times,serif" font-size="14.00">1</text>
</g>
<!-- l2007&#45;&gt;2919327208 -->
<g id="edge45" class="edge">
<title>l2007&#45;&gt;2919327208</title>
<path fill="none" stroke="lightgray" d="M65.59,-950.14C206.67,-937.31 758.03,-882.58 758.03,-811 758.03,-811 758.03,-811 758.03,-521 758.03,-480.55 763.79,-463.98 739.03,-432 717.13,-403.71 691.51,-422.1 667.03,-396 607.63,-332.66 648.39,-281.2 591.03,-216 575.52,-198.36 552.65,-185.08 533.72,-176.22"/>
<polygon fill="lightgray" stroke="lightgray" points="535.34,-173.11 524.78,-172.25 532.5,-179.51 535.34,-173.11"/>
</g>
<!-- l2009 -->
<g id="node3" class="node">
<title>l2009</title>
<ellipse fill="lightblue" stroke="lightblue" cx="33.03" cy="-810" rx="33.03" ry="18"/>
<text text-anchor="middle" x="33.03" y="-805.8" font-family="Times,serif" font-size="14.00">l2009</text>
</g>
<!-- l2008&#45;&gt;l2009 -->
<g id="edge2" class="edge">
<title>l2008&#45;&gt;l2009</title>
<path fill="none" stroke="black" d="M33.03,-863.7C33.03,-856.41 33.03,-847.73 33.03,-839.54"/>
<polygon fill="black" stroke="black" points="36.53,-839.62 33.03,-829.62 29.53,-839.62 36.53,-839.62"/>
</g>
<!-- 2964133286 -->
<g id="node43" class="node">
<title>2964133286</title>
<ellipse fill="none" stroke="black" cx="703.03" cy="-450" rx="27" ry="18"/>
<text text-anchor="middle" x="703.03" y="-445.8" font-family="Times,serif" font-size="14.00">1</text>
</g>
<!-- l2008&#45;&gt;2964133286 -->
<g id="edge48" class="edge">
<title>l2008&#45;&gt;2964133286</title>
<path fill="none" stroke="lightgray" d="M66.17,-881.3C203.4,-881.7 720.03,-874.19 720.03,-739 720.03,-739 720.03,-739 720.03,-593 720.03,-553.24 713.38,-507.67 708.4,-479.1"/>
<polygon fill="lightgray" stroke="lightgray" points="711.88,-478.68 706.66,-469.46 704.99,-479.92 711.88,-478.68"/>
</g>
<!-- l2010 -->
<g id="node4" class="node">
<title>l2010</title>
<ellipse fill="lightblue" stroke="lightblue" cx="33.03" cy="-738" rx="33.03" ry="18"/>
<text text-anchor="middle" x="33.03" y="-733.8" font-family="Times,serif" font-size="14.00">l2010</text>
</g>
<!-- l2009&#45;&gt;l2010 -->
<g id="edge3" class="edge">
<title>l2009&#45;&gt;l2010</title>
<path fill="none" stroke="black" d="M33.03,-791.7C33.03,-784.41 33.03,-775.73 33.03,-767.54"/>
<polygon fill="black" stroke="black" points="36.53,-767.62 33.03,-757.62 29.53,-767.62 36.53,-767.62"/>
</g>
<!-- l2011 -->
<g id="node5" class="node">
<title>l2011</title>
<ellipse fill="lightblue" stroke="lightblue" cx="33.03" cy="-666" rx="33.03" ry="18"/>
<text text-anchor="middle" x="33.03" y="-661.8" font-family="Times,serif" font-size="14.00">l2011</text>
</g>
<!-- l2010&#45;&gt;l2011 -->
<g id="edge4" class="edge">
<title>l2010&#45;&gt;l2011</title>
<path fill="none" stroke="black" d="M33.03,-719.7C33.03,-712.41 33.03,-703.73 33.03,-695.54"/>
<polygon fill="black" stroke="black" points="36.53,-695.62 33.03,-685.62 29.53,-695.62 36.53,-695.62"/>
</g>
<!-- 1968103943 -->
<g id="node16" class="node">
<title>1968103943</title>
<ellipse fill="none" stroke="black" cx="665.03" cy="-522" rx="27" ry="18"/>
<text text-anchor="middle" x="665.03" y="-517.8" font-family="Times,serif" font-size="14.00">65</text>
</g>
<!-- l2010&#45;&gt;1968103943 -->
<g id="edge76" class="edge">
<title>l2010&#45;&gt;1968103943</title>
<path fill="none" stroke="lightgray" d="M61.28,-728.37C146.76,-702.09 410,-619.93 624.03,-540 626.69,-539.01 629.42,-537.95 632.16,-536.87"/>
<polygon fill="lightgray" stroke="lightgray" points="633.24,-540.21 641.19,-533.21 630.61,-533.72 633.24,-540.21"/>
</g>
<!-- l2012 -->
<g id="node6" class="node">
<title>l2012</title>
<ellipse fill="lightblue" stroke="lightblue" cx="33.03" cy="-594" rx="33.03" ry="18"/>
<text text-anchor="middle" x="33.03" y="-589.8" font-family="Times,serif" font-size="14.00">l2012</text>
</g>
<!-- l2011&#45;&gt;l2012 -->
<g id="edge5" class="edge">
<title>l2011&#45;&gt;l2012</title>
<path fill="none" stroke="black" d="M33.03,-647.7C33.03,-640.41 33.03,-631.73 33.03,-623.54"/>
<polygon fill="black" stroke="black" points="36.53,-623.62 33.03,-613.62 29.53,-623.62 36.53,-623.62"/>
</g>
<!-- l2013 -->
<g id="node7" class="node">
<title>l2013</title>
<ellipse fill="lightblue" stroke="lightblue" cx="33.03" cy="-522" rx="33.03" ry="18"/>
<text text-anchor="middle" x="33.03" y="-517.8" font-family="Times,serif" font-size="14.00">l2013</text>
</g>
<!-- l2012&#45;&gt;l2013 -->
<g id="edge6" class="edge">
<title>l2012&#45;&gt;l2013</title>
<path fill="none" stroke="black" d="M33.03,-575.7C33.03,-568.41 33.03,-559.73 33.03,-551.54"/>
<polygon fill="black" stroke="black" points="36.53,-551.62 33.03,-541.62 29.53,-551.62 36.53,-551.62"/>
</g>
<!-- l2012&#45;&gt;1968103943 -->
<g id="edge49" class="edge">
<title>l2012&#45;&gt;1968103943</title>
<path fill="none" stroke="lightgray" d="M66.13,-591.35C174.33,-585.77 516.75,-566.4 624.03,-540 627.02,-539.27 630.07,-538.35 633.09,-537.32"/>
<polygon fill="lightgray" stroke="lightgray" points="634.23,-540.63 642.33,-533.8 631.74,-534.09 634.23,-540.63"/>
</g>
<!-- 2221768484 -->
<g id="node27" class="node">
<title>2221768484</title>
<ellipse fill="none" stroke="black" cx="183.03" cy="-378" rx="27" ry="18"/>
<text text-anchor="middle" x="183.03" y="-373.8" font-family="Times,serif" font-size="14.00">14</text>
</g>
<!-- l2012&#45;&gt;2221768484 -->
<g id="edge69" class="edge">
<title>l2012&#45;&gt;2221768484</title>
<path fill="none" stroke="lightgray" d="M46.24,-577.02C54.69,-566.63 65.76,-552.71 75.03,-540 109.23,-493.14 146.33,-436.41 166.93,-404.33"/>
<polygon fill="lightgray" stroke="lightgray" points="169.75,-406.41 172.2,-396.1 163.86,-402.64 169.75,-406.41"/>
</g>
<!-- 2536716774 -->
<g id="node29" class="node">
<title>2536716774</title>
<ellipse fill="none" stroke="black" cx="1337.03" cy="-306" rx="27" ry="18"/>
<text text-anchor="middle" x="1337.03" y="-301.8" font-family="Times,serif" font-size="14.00">12</text>
</g>
<!-- l2012&#45;&gt;2536716774 -->
<g id="edge54" class="edge">
<title>l2012&#45;&gt;2536716774</title>
<path fill="none" stroke="lightgray" d="M66.35,-593.21C245.16,-594.08 1086.57,-595.21 1187.03,-540 1268,-495.5 1311.9,-386.65 1328.78,-335.03"/>
<polygon fill="lightgray" stroke="lightgray" points="1332.12,-336.1 1331.79,-325.51 1325.44,-334 1332.12,-336.1"/>
</g>
<!-- 2594852553 -->
<g id="node33" class="node">
<title>2594852553</title>
<ellipse fill="none" stroke="black" cx="555.03" cy="-234" rx="27" ry="18"/>
<text text-anchor="middle" x="555.03" y="-229.8" font-family="Times,serif" font-size="14.00">0</text>
</g>
<!-- l2012&#45;&gt;2594852553 -->
<g id="edge55" class="edge">
<title>l2012&#45;&gt;2594852553</title>
<path fill="none" stroke="lightgray" d="M66.2,-591.68C156.17,-587.67 402.92,-573.82 476.03,-540 528.84,-515.57 572.03,-509.18 572.03,-451 572.03,-451 572.03,-451 572.03,-377 572.03,-337.24 565.38,-291.67 560.4,-263.1"/>
<polygon fill="lightgray" stroke="lightgray" points="563.88,-262.68 558.66,-253.46 556.99,-263.92 563.88,-262.68"/>
</g>
<!-- 2746030262 -->
<g id="node35" class="node">
<title>2746030262</title>
<ellipse fill="none" stroke="black" cx="373.03" cy="-234" rx="27" ry="18"/>
<text text-anchor="middle" x="373.03" y="-229.8" font-family="Times,serif" font-size="14.00">4</text>
</g>
<!-- l2012&#45;&gt;2746030262 -->
<g id="edge51" class="edge">
<title>l2012&#45;&gt;2746030262</title>
<path fill="none" stroke="lightgray" d="M66.02,-590.96C134.84,-586.12 290.77,-571.85 332.03,-540 366.51,-513.39 373.03,-494.55 373.03,-451 373.03,-451 373.03,-451 373.03,-377 373.03,-337.74 373.03,-292.38 373.03,-263.69"/>
<polygon fill="lightgray" stroke="lightgray" points="376.53,-264 373.03,-254 369.53,-264 376.53,-264"/>
</g>
<!-- l2012&#45;&gt;2919327208 -->
<g id="edge53" class="edge">
<title>l2012&#45;&gt;2919327208</title>
<path fill="none" stroke="lightgray" stroke-width="2" d="M66.14,-591.94C145.78,-588.82 345.45,-577.38 399.03,-540 456.95,-499.6 487.51,-275.05 496.87,-193.02"/>
<polygon fill="lightgray" stroke="lightgray" stroke-width="2" points="500.32,-193.61 497.95,-183.28 493.37,-192.84 500.32,-193.61"/>
</g>
<!-- 2964336877 -->
<g id="node44" class="node">
<title>2964336877</title>
<ellipse fill="none" stroke="black" cx="445.03" cy="-234" rx="27" ry="18"/>
<text text-anchor="middle" x="445.03" y="-229.8" font-family="Times,serif" font-size="14.00">1</text>
</g>
<!-- l2012&#45;&gt;2964336877 -->
<g id="edge52" class="edge">
<title>l2012&#45;&gt;2964336877</title>
<path fill="none" stroke="lightgray" d="M66.07,-590.94C139.36,-585.85 312.99,-570.82 362.03,-540 402.85,-514.35 424.03,-499.21 424.03,-451 424.03,-451 424.03,-451 424.03,-377 424.03,-337.1 432.25,-291.56 438.4,-263.04"/>
<polygon fill="lightgray" stroke="lightgray" points="441.79,-263.93 440.55,-253.41 434.96,-262.4 441.79,-263.93"/>
</g>
<!-- 2969121313 -->
<g id="node45" class="node">
<title>2969121313</title>
<ellipse fill="none" stroke="black" cx="686.03" cy="-162" rx="27" ry="18"/>
<text text-anchor="middle" x="686.03" y="-157.8" font-family="Times,serif" font-size="14.00">13</text>
</g>
<!-- l2012&#45;&gt;2969121313 -->
<g id="edge59" class="edge">
<title>l2012&#45;&gt;2969121313</title>
<path fill="none" stroke="lightgray" stroke-width="2" d="M66.23,-592.62C163.38,-591.03 445.23,-582.74 525.03,-540 561.75,-520.33 564.8,-504.41 585.03,-468 637.23,-374.09 668.06,-248.83 680.12,-192.56"/>
<polygon fill="lightgray" stroke="lightgray" stroke-width="2" points="683.49,-193.57 682.11,-183.07 676.64,-192.14 683.49,-193.57"/>
</g>
<!-- 3008702223 -->
<g id="node46" class="node">
<title>3008702223</title>
<ellipse fill="none" stroke="black" cx="762.03" cy="-90" rx="27" ry="18"/>
<text text-anchor="middle" x="762.03" y="-85.8" font-family="Times,serif" font-size="14.00">2</text>
</g>
<!-- l2012&#45;&gt;3008702223 -->
<g id="edge60" class="edge">
<title>l2012&#45;&gt;3008702223</title>
<path fill="none" stroke="lightgray" stroke-width="2" d="M66,-591.6C141.03,-586.46 318.03,-562.53 318.03,-451 318.03,-451 318.03,-451 318.03,-233 318.03,-148.5 613.46,-107.37 722.35,-95.08"/>
<polygon fill="lightgray" stroke="lightgray" stroke-width="2" points="722.69,-98.56 732.25,-93.99 721.93,-91.61 722.69,-98.56"/>
</g>
<!-- l2014 -->
<g id="node8" class="node">
<title>l2014</title>
<ellipse fill="lightblue" stroke="lightblue" cx="33.03" cy="-450" rx="33.03" ry="18"/>
<text text-anchor="middle" x="33.03" y="-445.8" font-family="Times,serif" font-size="14.00">l2014</text>
</g>
<!-- l2013&#45;&gt;l2014 -->
<g id="edge7" class="edge">
<title>l2013&#45;&gt;l2014</title>
<path fill="none" stroke="black" d="M33.03,-503.7C33.03,-496.41 33.03,-487.73 33.03,-479.54"/>
<polygon fill="black" stroke="black" points="36.53,-479.62 33.03,-469.62 29.53,-479.62 36.53,-479.62"/>
</g>
<!-- l2015 -->
<g id="node9" class="node">
<title>l2015</title>
<ellipse fill="lightblue" stroke="lightblue" cx="33.03" cy="-378" rx="33.03" ry="18"/>
<text text-anchor="middle" x="33.03" y="-373.8" font-family="Times,serif" font-size="14.00">l2015</text>
</g>
<!-- l2014&#45;&gt;l2015 -->
<g id="edge8" class="edge">
<title>l2014&#45;&gt;l2015</title>
<path fill="none" stroke="black" d="M33.03,-431.7C33.03,-424.41 33.03,-415.73 33.03,-407.54"/>
<polygon fill="black" stroke="black" points="36.53,-407.62 33.03,-397.62 29.53,-407.62 36.53,-407.62"/>
</g>
<!-- 2074407292 -->
<g id="node22" class="node">
<title>2074407292</title>
<ellipse fill="none" stroke="black" cx="1449.03" cy="-450" rx="27" ry="18"/>
<text text-anchor="middle" x="1449.03" y="-445.8" font-family="Times,serif" font-size="14.00">33</text>
</g>
<!-- l2014&#45;&gt;2074407292 -->
<g id="edge56" class="edge">
<title>l2014&#45;&gt;2074407292</title>
<path fill="none" stroke="lightgray" d="M66.13,-452.51C161.02,-459.56 442.17,-479.46 676.03,-486 756.89,-488.26 1327.7,-512.77 1404.03,-486 1412.08,-483.18 1419.76,-478.24 1426.42,-472.91"/>
<polygon fill="lightgray" stroke="lightgray" points="1428.46,-475.78 1433.68,-466.56 1423.85,-470.52 1428.46,-475.78"/>
</g>
<!-- 2217229052 -->
<g id="node26" class="node">
<title>2217229052</title>
<ellipse fill="none" stroke="black" cx="111.03" cy="-378" rx="27" ry="18"/>
<text text-anchor="middle" x="111.03" y="-373.8" font-family="Times,serif" font-size="14.00">7</text>
</g>
<!-- l2014&#45;&gt;2217229052 -->
<g id="edge46" class="edge">
<title>l2014&#45;&gt;2217229052</title>
<path fill="none" stroke="lightgray" d="M49.58,-434.15C60.44,-424.4 74.84,-411.48 86.97,-400.6"/>
<polygon fill="lightgray" stroke="lightgray" points="89.08,-403.4 94.19,-394.12 84.41,-398.19 89.08,-403.4"/>
</g>
<!-- l2014&#45;&gt;2221768484 -->
<g id="edge47" class="edge">
<title>l2014&#45;&gt;2221768484</title>
<path fill="none" stroke="lightgray" d="M57.51,-437.67C80.61,-426.97 116.2,-410.45 147.03,-396 148.34,-395.39 149.66,-394.77 151.01,-394.14"/>
<polygon fill="lightgray" stroke="lightgray" points="152.42,-397.34 159.97,-389.91 149.43,-391.01 152.42,-397.34"/>
</g>
<!-- 2293704766 -->
<g id="node28" class="node">
<title>2293704766</title>
<ellipse fill="none" stroke="black" cx="517.03" cy="-378" rx="27" ry="18"/>
<text text-anchor="middle" x="517.03" y="-373.8" font-family="Times,serif" font-size="14.00">2</text>
</g>
<!-- l2014&#45;&gt;2293704766 -->
<g id="edge80" class="edge">
<title>l2014&#45;&gt;2293704766</title>
<path fill="none" stroke="lightgray" stroke-width="2" d="M64.79,-444.41C150.18,-432.06 384.55,-398.16 477.91,-384.66"/>
<polygon fill="lightgray" stroke="lightgray" stroke-width="2" points="478.23,-388.15 487.63,-383.25 477.23,-381.22 478.23,-388.15"/>
</g>
<!-- l2016 -->
<g id="node10" class="node">
<title>l2016</title>
<ellipse fill="lightblue" stroke="lightblue" cx="33.03" cy="-306" rx="33.03" ry="18"/>
<text text-anchor="middle" x="33.03" y="-301.8" font-family="Times,serif" font-size="14.00">l2016</text>
</g>
<!-- l2015&#45;&gt;l2016 -->
<g id="edge9" class="edge">
<title>l2015&#45;&gt;l2016</title>
<path fill="none" stroke="black" d="M33.03,-359.7C33.03,-352.41 33.03,-343.73 33.03,-335.54"/>
<polygon fill="black" stroke="black" points="36.53,-335.62 33.03,-325.62 29.53,-335.62 36.53,-335.62"/>
</g>
<!-- l2017 -->
<g id="node11" class="node">
<title>l2017</title>
<ellipse fill="lightblue" stroke="lightblue" cx="33.03" cy="-234" rx="33.03" ry="18"/>
<text text-anchor="middle" x="33.03" y="-229.8" font-family="Times,serif" font-size="14.00">l2017</text>
</g>
<!-- l2016&#45;&gt;l2017 -->
<g id="edge10" class="edge">
<title>l2016&#45;&gt;l2017</title>
<path fill="none" stroke="black" d="M33.03,-287.7C33.03,-280.41 33.03,-271.73 33.03,-263.54"/>
<polygon fill="black" stroke="black" points="36.53,-263.62 33.03,-253.62 29.53,-263.62 36.53,-263.62"/>
</g>
<!-- 2549265357 -->
<g id="node30" class="node">
<title>2549265357</title>
<ellipse fill="none" stroke="black" cx="111.03" cy="-306" rx="27" ry="18"/>
<text text-anchor="middle" x="111.03" y="-301.8" font-family="Times,serif" font-size="14.00">6</text>
</g>
<!-- l2016&#45;&gt;2549265357 -->
<g id="edge72" class="edge">
<title>l2016&#45;&gt;2549265357</title>
<path fill="none" stroke="lightgray" d="M66.55,-306C68.41,-306 70.27,-306 72.14,-306"/>
<polygon fill="lightgray" stroke="lightgray" points="72.06,-309.5 82.06,-306 72.06,-302.5 72.06,-309.5"/>
</g>
<!-- 2756042034 -->
<g id="node36" class="node">
<title>2756042034</title>
<ellipse fill="none" stroke="black" cx="149.03" cy="-234" rx="27" ry="18"/>
<text text-anchor="middle" x="149.03" y="-229.8" font-family="Times,serif" font-size="14.00">0</text>
</g>
<!-- l2016&#45;&gt;2756042034 -->
<g id="edge71" class="edge">
<title>l2016&#45;&gt;2756042034</title>
<path fill="none" stroke="lightgray" stroke-width="2" d="M54.58,-292C72.55,-281.16 98.36,-265.58 118.46,-253.45"/>
<polygon fill="lightgray" stroke="lightgray" stroke-width="2" points="120.19,-256.5 126.94,-248.33 116.57,-250.5 120.19,-256.5"/>
</g>
<!-- 2787099913 -->
<g id="node37" class="node">
<title>2787099913</title>
<ellipse fill="none" stroke="black" cx="153.03" cy="-162" rx="27" ry="18"/>
<text text-anchor="middle" x="153.03" y="-157.8" font-family="Times,serif" font-size="14.00">3</text>
</g>
<!-- l2016&#45;&gt;2787099913 -->
<g id="edge57" class="edge">
<title>l2016&#45;&gt;2787099913</title>
<path fill="none" stroke="lightgray" d="M58.69,-294.29C64.06,-292.14 69.71,-289.94 75.03,-288 123.35,-270.34 154.84,-293.65 185.03,-252 199.15,-232.53 186.64,-206.2 173.35,-187.24"/>
<polygon fill="lightgray" stroke="lightgray" points="176.17,-185.18 167.37,-179.28 170.58,-189.38 176.17,-185.18"/>
</g>
<!-- 2942393843 -->
<g id="node40" class="node">
<title>2942393843</title>
<ellipse fill="none" stroke="black" cx="834.03" cy="-90" rx="27" ry="18"/>
<text text-anchor="middle" x="834.03" y="-85.8" font-family="Times,serif" font-size="14.00">5</text>
</g>
<!-- l2016&#45;&gt;2942393843 -->
<g id="edge50" class="edge">
<title>l2016&#45;&gt;2942393843</title>
<path fill="none" stroke="lightgray" d="M58.13,-294.13C63.64,-291.94 69.49,-289.77 75.03,-288 140.75,-267 160.76,-274.36 226.03,-252 335.92,-214.36 351.98,-174.61 464.03,-144 608.06,-104.65 654.31,-148.44 798.03,-108 799.66,-107.54 801.29,-107.02 802.93,-106.45"/>
<polygon fill="lightgray" stroke="lightgray" points="804.22,-109.7 812.15,-102.68 801.57,-103.22 804.22,-109.7"/>
</g>
<!-- 2951728686 -->
<g id="node41" class="node">
<title>2951728686</title>
<ellipse fill="none" stroke="black" cx="225.03" cy="-162" rx="27" ry="18"/>
<text text-anchor="middle" x="225.03" y="-157.8" font-family="Times,serif" font-size="14.00">0</text>
</g>
<!-- l2016&#45;&gt;2951728686 -->
<g id="edge58" class="edge">
<title>l2016&#45;&gt;2951728686</title>
<path fill="none" stroke="lightgray" d="M58.63,-294.12C64.01,-291.98 69.67,-289.83 75.03,-288 130.95,-268.88 161.92,-294.45 203.03,-252 218.53,-236 223.66,-210.89 225.12,-191.42"/>
<polygon fill="lightgray" stroke="lightgray" points="228.61,-191.81 225.56,-181.67 221.62,-191.5 228.61,-191.81"/>
</g>
<!-- l2016&#45;&gt;3008702223 -->
<g id="edge70" class="edge">
<title>l2016&#45;&gt;3008702223</title>
<path fill="none" stroke="lightgray" d="M47.23,-289.66C56.07,-279.53 67.21,-265.65 75.03,-252 100.65,-207.32 75.75,-174.8 117.03,-144 165.67,-107.72 591.44,-94.93 723.29,-91.82"/>
<polygon fill="lightgray" stroke="lightgray" points="723.33,-95.32 733.24,-91.59 723.16,-88.32 723.33,-95.32"/>
</g>
<!-- l2018 -->
<g id="node12" class="node">
<title>l2018</title>
<ellipse fill="lightblue" stroke="lightblue" cx="33.03" cy="-162" rx="33.03" ry="18"/>
<text text-anchor="middle" x="33.03" y="-157.8" font-family="Times,serif" font-size="14.00">l2018</text>
</g>
<!-- l2017&#45;&gt;l2018 -->
<g id="edge11" class="edge">
<title>l2017&#45;&gt;l2018</title>
<path fill="none" stroke="black" d="M33.03,-215.7C33.03,-208.41 33.03,-199.73 33.03,-191.54"/>
<polygon fill="black" stroke="black" points="36.53,-191.62 33.03,-181.62 29.53,-191.62 36.53,-191.62"/>
</g>
<!-- l2019 -->
<g id="node13" class="node">
<title>l2019</title>
<ellipse fill="lightblue" stroke="lightblue" cx="33.03" cy="-90" rx="33.03" ry="18"/>
<text text-anchor="middle" x="33.03" y="-85.8" font-family="Times,serif" font-size="14.00">l2019</text>
</g>
<!-- l2018&#45;&gt;l2019 -->
<g id="edge12" class="edge">
<title>l2018&#45;&gt;l2019</title>
<path fill="none" stroke="black" d="M33.03,-143.7C33.03,-136.41 33.03,-127.73 33.03,-119.54"/>
<polygon fill="black" stroke="black" points="36.53,-119.62 33.03,-109.62 29.53,-119.62 36.53,-119.62"/>
</g>
<!-- l2020 -->
<g id="node14" class="node">
<title>l2020</title>
<ellipse fill="lightblue" stroke="lightblue" cx="33.03" cy="-18" rx="33.03" ry="18"/>
<text text-anchor="middle" x="33.03" y="-13.8" font-family="Times,serif" font-size="14.00">l2020</text>
</g>
<!-- l2019&#45;&gt;l2020 -->
<g id="edge13" class="edge">
<title>l2019&#45;&gt;l2020</title>
<path fill="none" stroke="black" d="M33.03,-71.7C33.03,-64.41 33.03,-55.73 33.03,-47.54"/>
<polygon fill="black" stroke="black" points="36.53,-47.62 33.03,-37.62 29.53,-47.62 36.53,-47.62"/>
</g>
<!-- 1256453626 -->
<g id="node15" class="node">
<title>1256453626</title>
<ellipse fill="none" stroke="black" cx="775.03" cy="-378" rx="27" ry="18"/>
<text text-anchor="middle" x="775.03" y="-373.8" font-family="Times,serif" font-size="14.00">4</text>
</g>
<!-- 1256453626&#45;&gt;2969121313 -->
<g id="edge24" class="edge">
<title>1256453626&#45;&gt;2969121313</title>
<path fill="none" stroke="black" d="M754.55,-365.91C739.67,-356.71 720.4,-342.22 710.03,-324 686.38,-282.44 683.51,-225.47 684.28,-191.63"/>
<polygon fill="black" stroke="black" points="687.78,-191.91 684.65,-181.79 680.78,-191.66 687.78,-191.91"/>
</g>
<!-- 2010627475 -->
<g id="node17" class="node">
<title>2010627475</title>
<ellipse fill="none" stroke="black" cx="910.03" cy="-522" rx="27" ry="18"/>
<text text-anchor="middle" x="910.03" y="-517.8" font-family="Times,serif" font-size="14.00">20</text>
</g>
<!-- r2019 -->
<g id="node61" class="node">
<title>r2019</title>
<ellipse fill="lightgrey" stroke="lightgrey" cx="1566.03" cy="-90" rx="33.57" ry="18"/>
<text text-anchor="middle" x="1566.03" y="-85.8" font-family="Times,serif" font-size="14.00">r2019</text>
</g>
<!-- 2010627475&#45;&gt;r2019 -->
<g id="edge79" class="edge">
<title>2010627475&#45;&gt;r2019</title>
<path fill="none" stroke="lightgray" d="M905.98,-504.07C894.72,-452.32 868.91,-294.98 950.03,-216 1005.42,-162.07 1224.84,-210.13 1296.03,-180 1318.99,-170.29 1316.74,-155.14 1339.03,-144 1398.11,-114.49 1474.1,-101.07 1521.44,-95.21"/>
<polygon fill="lightgray" stroke="lightgray" points="1521.8,-98.7 1531.33,-94.06 1520.99,-91.74 1521.8,-98.7"/>
</g>
<!-- 2011037557 -->
<g id="node18" class="node">
<title>2011037557</title>
<ellipse fill="none" stroke="black" cx="1151.03" cy="-378" rx="27" ry="18"/>
<text text-anchor="middle" x="1151.03" y="-373.8" font-family="Times,serif" font-size="14.00">0</text>
</g>
<!-- 2033389579 -->
<g id="node19" class="node">
<title>2033389579</title>
<ellipse fill="none" stroke="black" cx="1377.03" cy="-450" rx="27" ry="18"/>
<text text-anchor="middle" x="1377.03" y="-445.8" font-family="Times,serif" font-size="14.00">100</text>
</g>
<!-- 2033389579&#45;&gt;2942393843 -->
<g id="edge25" class="edge">
<title>2033389579&#45;&gt;2942393843</title>
<path fill="none" stroke="black" d="M1355.66,-438.66C1318.07,-418.81 1244.03,-371.52 1244.03,-307 1244.03,-307 1244.03,-307 1244.03,-233 1244.03,-154.65 973.33,-109.87 871.85,-95.84"/>
<polygon fill="black" stroke="black" points="872.5,-92.39 862.12,-94.52 871.56,-99.33 872.5,-92.39"/>
</g>
<!-- r2015 -->
<g id="node57" class="node">
<title>r2015</title>
<ellipse fill="lightgrey" stroke="lightgrey" cx="1566.03" cy="-378" rx="33.57" ry="18"/>
<text text-anchor="middle" x="1566.03" y="-373.8" font-family="Times,serif" font-size="14.00">r2015</text>
</g>
<!-- 2033389579&#45;&gt;r2015 -->
<g id="edge62" class="edge">
<title>2033389579&#45;&gt;r2015</title>
<path fill="none" stroke="lightgray" stroke-width="5" d="M1398.18,-438.55C1403.02,-436.29 1408.17,-433.98 1413.03,-432 1449.22,-417.24 1491.22,-402.88 1522.05,-392.84"/>
<polygon fill="lightgray" stroke="lightgray" stroke-width="5" points="1523.38,-397.01 1531.56,-389.78 1520.7,-388.68 1523.38,-397.01"/>
</g>
<!-- r2017 -->
<g id="node59" class="node">
<title>r2017</title>
<ellipse fill="lightgrey" stroke="lightgrey" cx="1566.03" cy="-234" rx="33.57" ry="18"/>
<text text-anchor="middle" x="1566.03" y="-229.8" font-family="Times,serif" font-size="14.00">r2017</text>
</g>
<!-- 2033389579&#45;&gt;r2017 -->
<g id="edge75" class="edge">
<title>2033389579&#45;&gt;r2017</title>
<path fill="none" stroke="lightgray" d="M1387.41,-432.91C1407.26,-402.73 1452.86,-336.33 1500.03,-288 1511.29,-276.47 1525.02,-265.09 1537.03,-255.85"/>
<polygon fill="lightgray" stroke="lightgray" points="1539.12,-258.65 1545.01,-249.84 1534.91,-253.06 1539.12,-258.65"/>
</g>
<!-- 2033389579&#45;&gt;r2019 -->
<g id="edge68" class="edge">
<title>2033389579&#45;&gt;r2019</title>
<path fill="none" stroke="lightgray" stroke-width="5" d="M1361.53,-435.11C1332.23,-407.08 1273.96,-341.85 1301.03,-288 1301.44,-287.2 1463.96,-166.66 1534.26,-114.55"/>
<polygon fill="lightgray" stroke="lightgray" stroke-width="5" points="1536.57,-118.28 1542,-108.81 1531.36,-111.25 1536.57,-118.28"/>
</g>
<!-- 2064444594 -->
<g id="node20" class="node">
<title>2064444594</title>
<ellipse fill="none" stroke="black" cx="1415.03" cy="-522" rx="27" ry="18"/>
<text text-anchor="middle" x="1415.03" y="-517.8" font-family="Times,serif" font-size="14.00">9</text>
</g>
<!-- 2092272247 -->
<g id="node24" class="node">
<title>2092272247</title>
<ellipse fill="none" stroke="black" cx="1487.03" cy="-522" rx="27" ry="18"/>
<text text-anchor="middle" x="1487.03" y="-517.8" font-family="Times,serif" font-size="14.00">4</text>
</g>
<!-- 2064444594&#45;&gt;2092272247 -->
<g id="edge27" class="edge">
<title>2064444594&#45;&gt;2092272247</title>
<path fill="none" stroke="black" d="M1442.31,-522C1444.32,-522 1446.32,-522 1448.32,-522"/>
<polygon fill="black" stroke="black" points="1448.27,-525.5 1458.27,-522 1448.27,-518.5 1448.27,-525.5"/>
</g>
<!-- 2070151446 -->
<g id="node21" class="node">
<title>2070151446</title>
<ellipse fill="none" stroke="black" cx="1096.03" cy="-450" rx="27" ry="18"/>
<text text-anchor="middle" x="1096.03" y="-445.8" font-family="Times,serif" font-size="14.00">12</text>
</g>
<!-- 2070151446&#45;&gt;2011037557 -->
<g id="edge30" class="edge">
<title>2070151446&#45;&gt;2011037557</title>
<path fill="none" stroke="black" d="M1108.24,-433.46C1115.15,-424.67 1123.94,-413.48 1131.76,-403.53"/>
<polygon fill="black" stroke="black" points="1134.5,-405.71 1137.93,-395.68 1129,-401.38 1134.5,-405.71"/>
</g>
<!-- 2578585522 -->
<g id="node32" class="node">
<title>2578585522</title>
<ellipse fill="none" stroke="black" cx="1155.03" cy="-306" rx="27" ry="18"/>
<text text-anchor="middle" x="1155.03" y="-301.8" font-family="Times,serif" font-size="14.00">2</text>
</g>
<!-- 2070151446&#45;&gt;2578585522 -->
<g id="edge28" class="edge">
<title>2070151446&#45;&gt;2578585522</title>
<path fill="none" stroke="black" d="M1097.5,-431.57C1099.56,-413.1 1104.33,-383.43 1115.03,-360 1119.82,-349.53 1126.96,-339.16 1133.88,-330.41"/>
<polygon fill="black" stroke="black" points="1136.52,-332.71 1140.23,-322.78 1131.14,-328.23 1136.52,-332.71"/>
</g>
<!-- 2619011320 -->
<g id="node34" class="node">
<title>2619011320</title>
<ellipse fill="none" stroke="black" cx="986.03" cy="-234" rx="27" ry="18"/>
<text text-anchor="middle" x="986.03" y="-229.8" font-family="Times,serif" font-size="14.00">7</text>
</g>
<!-- 2070151446&#45;&gt;2619011320 -->
<g id="edge29" class="edge">
<title>2070151446&#45;&gt;2619011320</title>
<path fill="none" stroke="black" d="M1071.56,-441.68C1050.27,-433.94 1020.47,-419.54 1005.03,-396 978.66,-355.79 979.03,-297.54 982.19,-263.24"/>
<polygon fill="black" stroke="black" points="985.63,-264 983.22,-253.68 978.67,-263.24 985.63,-264"/>
</g>
<!-- 2074407292&#45;&gt;r2015 -->
<g id="edge78" class="edge">
<title>2074407292&#45;&gt;r2015</title>
<path fill="none" stroke="lightgray" d="M1468.62,-437.28C1486.62,-426.51 1513.62,-410.36 1534.63,-397.79"/>
<polygon fill="lightgray" stroke="lightgray" points="1536.31,-400.86 1543.1,-392.72 1532.72,-394.85 1536.31,-400.86"/>
</g>
<!-- 2074407292&#45;&gt;r2017 -->
<g id="edge77" class="edge">
<title>2074407292&#45;&gt;r2017</title>
<path fill="none" stroke="lightgray" d="M1455.1,-432.31C1466.36,-402.28 1492.17,-337.64 1523.03,-288 1529.26,-277.99 1537.13,-267.76 1544.44,-258.99"/>
<polygon fill="lightgray" stroke="lightgray" points="1546.92,-261.47 1550.77,-251.6 1541.61,-256.92 1546.92,-261.47"/>
</g>
<!-- 2078106834 -->
<g id="node23" class="node">
<title>2078106834</title>
<ellipse fill="none" stroke="black" cx="1151.03" cy="-522" rx="27" ry="18"/>
<text text-anchor="middle" x="1151.03" y="-517.8" font-family="Times,serif" font-size="14.00">28</text>
</g>
<!-- 2078106834&#45;&gt;2011037557 -->
<g id="edge23" class="edge">
<title>2078106834&#45;&gt;2011037557</title>
<path fill="none" stroke="black" d="M1151.03,-503.59C1151.03,-479.61 1151.03,-436.14 1151.03,-407.42"/>
<polygon fill="black" stroke="black" points="1154.53,-407.62 1151.03,-397.62 1147.53,-407.62 1154.53,-407.62"/>
</g>
<!-- 2078106834&#45;&gt;2293704766 -->
<g id="edge22" class="edge">
<title>2078106834&#45;&gt;2293704766</title>
<path fill="none" stroke="black" d="M1125.79,-515.35C1027.37,-493.3 669.19,-413.08 553.4,-387.15"/>
<polygon fill="black" stroke="black" points="554.35,-383.77 543.83,-385 552.82,-390.6 554.35,-383.77"/>
</g>
<!-- 2078106834&#45;&gt;2536716774 -->
<g id="edge19" class="edge">
<title>2078106834&#45;&gt;2536716774</title>
<path fill="none" stroke="black" d="M1164.11,-505.95C1196,-469.27 1277.93,-375.01 1316.44,-330.69"/>
<polygon fill="black" stroke="black" points="1319.06,-333.02 1322.98,-323.17 1313.77,-328.43 1319.06,-333.02"/>
</g>
<!-- 2078106834&#45;&gt;2578585522 -->
<g id="edge20" class="edge">
<title>2078106834&#45;&gt;2578585522</title>
<path fill="none" stroke="black" d="M1159.89,-504.87C1174.73,-475.72 1201.63,-412.42 1187.03,-360 1184.26,-350.03 1179.04,-340.06 1173.61,-331.5"/>
<polygon fill="black" stroke="black" points="1176.65,-329.74 1168.13,-323.44 1170.86,-333.67 1176.65,-329.74"/>
</g>
<!-- 2078106834&#45;&gt;2619011320 -->
<g id="edge21" class="edge">
<title>2078106834&#45;&gt;2619011320</title>
<path fill="none" stroke="black" d="M1128.25,-511.93C1090.32,-495.41 1015.37,-456.46 985.03,-396 963.73,-353.54 971.15,-296.49 978.55,-262.94"/>
<polygon fill="black" stroke="black" points="981.87,-264.13 980.77,-253.59 975.05,-262.52 981.87,-264.13"/>
</g>
<!-- 2092272247&#45;&gt;l2012 -->
<!-- 2164053284 -->
<g id="node25" class="node">
<title>2164053284</title>
<ellipse fill="none" stroke="black" cx="1360.03" cy="-594" rx="27" ry="18"/>
<text text-anchor="middle" x="1360.03" y="-589.8" font-family="Times,serif" font-size="14.00">22</text>
</g>
<!-- r2013 -->
<g id="node55" class="node">
<title>r2013</title>
<ellipse fill="lightgrey" stroke="lightgrey" cx="1566.03" cy="-522" rx="33.57" ry="18"/>
<text text-anchor="middle" x="1566.03" y="-517.8" font-family="Times,serif" font-size="14.00">r2013</text>
</g>
<!-- 2164053284&#45;&gt;r2013 -->
<g id="edge63" class="edge">
<title>2164053284&#45;&gt;r2013</title>
<path fill="none" stroke="lightgray" d="M1384.5,-585.57C1416.52,-575.72 1474.31,-557.53 1523.03,-540 1525.07,-539.27 1527.16,-538.5 1529.26,-537.71"/>
<polygon fill="lightgray" stroke="lightgray" points="1530.26,-541.08 1538.34,-534.23 1527.75,-534.54 1530.26,-541.08"/>
</g>
<!-- 2164053284&#45;&gt;r2015 -->
<g id="edge61" class="edge">
<title>2164053284&#45;&gt;r2015</title>
<path fill="none" stroke="lightgray" stroke-width="2" d="M1358.97,-575.71C1358.72,-555.97 1361.39,-523.83 1379.03,-504 1412.1,-466.82 1443.41,-495.26 1485.03,-468 1498.75,-459.02 1526.1,-427.59 1545.2,-404.62"/>
<polygon fill="lightgray" stroke="lightgray" stroke-width="2" points="1547.74,-407.05 1551.4,-397.11 1542.33,-402.6 1547.74,-407.05"/>
</g>
<!-- 2536716774&#45;&gt;r2017 -->
<g id="edge73" class="edge">
<title>2536716774&#45;&gt;r2017</title>
<path fill="none" stroke="lightgray" d="M1361.11,-297.64C1400.44,-285.62 1478.87,-261.64 1526.47,-247.09"/>
<polygon fill="lightgray" stroke="lightgray" points="1527.31,-250.5 1535.85,-244.23 1525.26,-243.8 1527.31,-250.5"/>
</g>
<!-- 2578023882 -->
<g id="node31" class="node">
<title>2578023882</title>
<ellipse fill="none" stroke="black" cx="817.03" cy="-306" rx="27" ry="18"/>
<text text-anchor="middle" x="817.03" y="-301.8" font-family="Times,serif" font-size="14.00">6</text>
</g>
<!-- 2578023882&#45;&gt;2942393843 -->
<g id="edge31" class="edge">
<title>2578023882&#45;&gt;2942393843</title>
<path fill="none" stroke="black" d="M818.4,-287.85C821.31,-251.14 828.18,-164.66 831.77,-119.53"/>
<polygon fill="black" stroke="black" points="835.24,-119.99 832.54,-109.74 828.26,-119.43 835.24,-119.99"/>
</g>
<!-- 2578585522&#45;&gt;r2017 -->
<g id="edge66" class="edge">
<title>2578585522&#45;&gt;r2017</title>
<path fill="none" stroke="lightgray" d="M1181.06,-300.57C1249.98,-288.83 1437.82,-256.84 1523.01,-242.33"/>
<polygon fill="lightgray" stroke="lightgray" points="1523.56,-245.78 1532.83,-240.65 1522.39,-238.88 1523.56,-245.78"/>
</g>
<!-- 2896997271 -->
<g id="node38" class="node">
<title>2896997271</title>
<ellipse fill="none" stroke="black" cx="1375.03" cy="-162" rx="27" ry="18"/>
<text text-anchor="middle" x="1375.03" y="-157.8" font-family="Times,serif" font-size="14.00">20</text>
</g>
<!-- 2896997271&#45;&gt;r2019 -->
<g id="edge74" class="edge">
<title>2896997271&#45;&gt;r2019</title>
<path fill="none" stroke="lightgray" d="M1397.5,-151.43C1403.5,-148.95 1409.99,-146.32 1416.03,-144 1453.58,-129.59 1496.95,-114.43 1527.36,-104.03"/>
<polygon fill="lightgray" stroke="lightgray" points="1528.18,-107.45 1536.52,-100.91 1525.92,-100.82 1528.18,-107.45"/>
</g>
<!-- 2963233535 -->
<g id="node42" class="node">
<title>2963233535</title>
<ellipse fill="none" stroke="black" cx="834.03" cy="-522" rx="27" ry="18"/>
<text text-anchor="middle" x="834.03" y="-517.8" font-family="Times,serif" font-size="14.00">13</text>
</g>
<!-- 2963233535&#45;&gt;r2019 -->
<g id="edge81" class="edge">
<title>2963233535&#45;&gt;r2019</title>
<path fill="none" stroke="lightgray" stroke-width="2" d="M832.9,-503.83C830.46,-451.39 830.94,-292.29 919.03,-216 1009.85,-137.35 1387.17,-103.61 1519.74,-94.04"/>
<polygon fill="lightgray" stroke="lightgray" stroke-width="2" points="1519.76,-97.54 1529.49,-93.35 1519.26,-90.56 1519.76,-97.54"/>
</g>
<!-- 633744573 -->
<g id="node47" class="node">
<title>633744573</title>
<ellipse fill="none" stroke="black" cx="1041.03" cy="-378" rx="27" ry="18"/>
<text text-anchor="middle" x="1041.03" y="-373.8" font-family="Times,serif" font-size="14.00">58</text>
</g>
<!-- 633744573&#45;&gt;2011037557 -->
<g id="edge18" class="edge">
<title>633744573&#45;&gt;2011037557</title>
<path fill="none" stroke="black" d="M1068.53,-378C1083.17,-378 1097.81,-378 1112.45,-378"/>
<polygon fill="black" stroke="black" points="1112.13,-381.5 1122.13,-378 1112.13,-374.5 1112.13,-381.5"/>
</g>
<!-- 633744573&#45;&gt;2578585522 -->
<g id="edge15" class="edge">
<title>633744573&#45;&gt;2578585522</title>
<path fill="none" stroke="black" d="M1060.37,-365.13C1078.31,-354.11 1105.24,-337.57 1125.8,-324.95"/>
<polygon fill="black" stroke="black" points="1127.62,-327.94 1134.31,-319.72 1123.96,-321.97 1127.62,-327.94"/>
</g>
<!-- 633744573&#45;&gt;2619011320 -->
<g id="edge16" class="edge">
<title>633744573&#45;&gt;2619011320</title>
<path fill="none" stroke="black" d="M1034.51,-360.15C1025.16,-336.03 1007.86,-291.36 996.66,-262.43"/>
<polygon fill="black" stroke="black" points="999.97,-261.3 993.1,-253.24 993.44,-263.83 999.97,-261.3"/>
</g>
<!-- 633744573&#45;&gt;2969121313 -->
<g id="edge14" class="edge">
<title>633744573&#45;&gt;2969121313</title>
<path fill="none" stroke="black" d="M1014.23,-375.46C949.8,-371.24 788.56,-357.52 748.03,-324 726.98,-306.59 704.45,-232.24 693.24,-190.94"/>
<polygon fill="black" stroke="black" points="696.67,-190.23 690.71,-181.46 689.91,-192.03 696.67,-190.23"/>
</g>
<!-- 633744573&#45;&gt;3008702223 -->
<g id="edge17" class="edge">
<title>633744573&#45;&gt;3008702223</title>
<path fill="none" stroke="black" d="M1013.99,-375.48C953.81,-371.49 811.68,-358.55 781.03,-324 730.26,-266.76 743.97,-167.46 754.72,-119.1"/>
<polygon fill="black" stroke="black" points="758.11,-119.97 757,-109.43 751.29,-118.36 758.11,-119.97"/>
</g>
<!-- 633744573&#45;&gt;r2015 -->
<g id="edge64" class="edge">
<title>633744573&#45;&gt;r2015</title>
<path fill="none" stroke="lightgray" stroke-width="2" d="M1061.74,-389.83C1078.07,-398.44 1101.73,-409.37 1124.03,-414 1206.06,-431.02 1419.92,-434.96 1501.03,-414 1512.74,-410.97 1524.59,-405.34 1534.9,-399.41"/>
<polygon fill="lightgray" stroke="lightgray" stroke-width="2" points="1536.54,-402.51 1543.23,-394.3 1532.88,-396.55 1536.54,-402.51"/>
</g>
<!-- 633744573&#45;&gt;r2017 -->
<g id="edge65" class="edge">
<title>633744573&#45;&gt;r2017</title>
<path fill="none" stroke="lightgray" stroke-width="3" d="M1050.18,-360.58C1062.73,-339.78 1087.4,-304.65 1119.03,-288 1136.57,-278.77 1407.17,-250.87 1518.62,-239.7"/>
<polygon fill="lightgray" stroke="lightgray" stroke-width="3" points="1518.82,-243.2 1528.42,-238.72 1518.12,-236.23 1518.82,-243.2"/>
</g>
<!-- 633744573&#45;&gt;r2019 -->
<g id="edge67" class="edge">
<title>633744573&#45;&gt;r2019</title>
<path fill="none" stroke="lightgray" d="M1043.33,-359.8C1046.88,-339.84 1055.58,-307.21 1076.03,-288 1190.07,-180.91 1274.08,-255.61 1411.03,-180 1432.85,-167.95 1433.04,-157.44 1454.03,-144 1477.7,-128.85 1506.37,-115.36 1528.78,-105.78"/>
<polygon fill="lightgray" stroke="lightgray" points="1529.97,-109.08 1537.84,-101.99 1527.26,-102.63 1529.97,-109.08"/>
</g>
<!-- 768653336 -->
<g id="node48" class="node">
<title>768653336</title>
<ellipse fill="none" stroke="black" cx="703.03" cy="-378" rx="27" ry="18"/>
<text text-anchor="middle" x="703.03" y="-373.8" font-family="Times,serif" font-size="14.00">13</text>
</g>
<!-- 768653336&#45;&gt;1256453626 -->
<g id="edge26" class="edge">
<title>768653336&#45;&gt;1256453626</title>
<path fill="none" stroke="black" d="M730.31,-378C732.32,-378 734.32,-378 736.32,-378"/>
<polygon fill="black" stroke="black" points="736.27,-381.5 746.27,-378 736.27,-374.5 736.27,-381.5"/>
</g>
<!-- r2007 -->
<g id="node49" class="node">
<title>r2007</title>
<ellipse fill="lightgrey" stroke="lightgrey" cx="1566.03" cy="-954" rx="33.57" ry="18"/>
<text text-anchor="middle" x="1566.03" y="-949.8" font-family="Times,serif" font-size="14.00">r2007</text>
</g>
<!-- r2008 -->
<g id="node50" class="node">
<title>r2008</title>
<ellipse fill="lightgrey" stroke="lightgrey" cx="1566.03" cy="-882" rx="33.57" ry="18"/>
<text text-anchor="middle" x="1566.03" y="-877.8" font-family="Times,serif" font-size="14.00">r2008</text>
</g>
<!-- r2007&#45;&gt;r2008 -->
<g id="edge32" class="edge">
<title>r2007&#45;&gt;r2008</title>
<path fill="none" stroke="black" d="M1566.03,-935.7C1566.03,-928.41 1566.03,-919.73 1566.03,-911.54"/>
<polygon fill="black" stroke="black" points="1569.53,-911.62 1566.03,-901.62 1562.53,-911.62 1569.53,-911.62"/>
</g>
<!-- r2009 -->
<g id="node51" class="node">
<title>r2009</title>
<ellipse fill="lightgrey" stroke="lightgrey" cx="1566.03" cy="-810" rx="33.57" ry="18"/>
<text text-anchor="middle" x="1566.03" y="-805.8" font-family="Times,serif" font-size="14.00">r2009</text>
</g>
<!-- r2008&#45;&gt;r2009 -->
<g id="edge33" class="edge">
<title>r2008&#45;&gt;r2009</title>
<path fill="none" stroke="black" d="M1566.03,-863.7C1566.03,-856.41 1566.03,-847.73 1566.03,-839.54"/>
<polygon fill="black" stroke="black" points="1569.53,-839.62 1566.03,-829.62 1562.53,-839.62 1569.53,-839.62"/>
</g>
<!-- r2010 -->
<g id="node52" class="node">
<title>r2010</title>
<ellipse fill="lightgrey" stroke="lightgrey" cx="1566.03" cy="-738" rx="33.57" ry="18"/>
<text text-anchor="middle" x="1566.03" y="-733.8" font-family="Times,serif" font-size="14.00">r2010</text>
</g>
<!-- r2009&#45;&gt;r2010 -->
<g id="edge34" class="edge">
<title>r2009&#45;&gt;r2010</title>
<path fill="none" stroke="black" d="M1566.03,-791.7C1566.03,-784.41 1566.03,-775.73 1566.03,-767.54"/>
<polygon fill="black" stroke="black" points="1569.53,-767.62 1566.03,-757.62 1562.53,-767.62 1569.53,-767.62"/>
</g>
<!-- r2011 -->
<g id="node53" class="node">
<title>r2011</title>
<ellipse fill="lightgrey" stroke="lightgrey" cx="1566.03" cy="-666" rx="33.57" ry="18"/>
<text text-anchor="middle" x="1566.03" y="-661.8" font-family="Times,serif" font-size="14.00">r2011</text>
</g>
<!-- r2010&#45;&gt;r2011 -->
<g id="edge35" class="edge">
<title>r2010&#45;&gt;r2011</title>
<path fill="none" stroke="black" d="M1566.03,-719.7C1566.03,-712.41 1566.03,-703.73 1566.03,-695.54"/>
<polygon fill="black" stroke="black" points="1569.53,-695.62 1566.03,-685.62 1562.53,-695.62 1569.53,-695.62"/>
</g>
<!-- r2012 -->
<g id="node54" class="node">
<title>r2012</title>
<ellipse fill="lightgrey" stroke="lightgrey" cx="1566.03" cy="-594" rx="33.57" ry="18"/>
<text text-anchor="middle" x="1566.03" y="-589.8" font-family="Times,serif" font-size="14.00">r2012</text>
</g>
<!-- r2011&#45;&gt;r2012 -->
<g id="edge36" class="edge">
<title>r2011&#45;&gt;r2012</title>
<path fill="none" stroke="black" d="M1566.03,-647.7C1566.03,-640.41 1566.03,-631.73 1566.03,-623.54"/>
<polygon fill="black" stroke="black" points="1569.53,-623.62 1566.03,-613.62 1562.53,-623.62 1569.53,-623.62"/>
</g>
<!-- r2012&#45;&gt;r2013 -->
<g id="edge37" class="edge">
<title>r2012&#45;&gt;r2013</title>
<path fill="none" stroke="black" d="M1566.03,-575.7C1566.03,-568.41 1566.03,-559.73 1566.03,-551.54"/>
<polygon fill="black" stroke="black" points="1569.53,-551.62 1566.03,-541.62 1562.53,-551.62 1569.53,-551.62"/>
</g>
<!-- r2014 -->
<g id="node56" class="node">
<title>r2014</title>
<ellipse fill="lightgrey" stroke="lightgrey" cx="1566.03" cy="-450" rx="33.57" ry="18"/>
<text text-anchor="middle" x="1566.03" y="-445.8" font-family="Times,serif" font-size="14.00">r2014</text>
</g>
<!-- r2013&#45;&gt;r2014 -->
<g id="edge38" class="edge">
<title>r2013&#45;&gt;r2014</title>
<path fill="none" stroke="black" d="M1566.03,-503.7C1566.03,-496.41 1566.03,-487.73 1566.03,-479.54"/>
<polygon fill="black" stroke="black" points="1569.53,-479.62 1566.03,-469.62 1562.53,-479.62 1569.53,-479.62"/>
</g>
<!-- r2014&#45;&gt;r2015 -->
<g id="edge39" class="edge">
<title>r2014&#45;&gt;r2015</title>
<path fill="none" stroke="black" d="M1566.03,-431.7C1566.03,-424.41 1566.03,-415.73 1566.03,-407.54"/>
<polygon fill="black" stroke="black" points="1569.53,-407.62 1566.03,-397.62 1562.53,-407.62 1569.53,-407.62"/>
</g>
<!-- r2016 -->
<g id="node58" class="node">
<title>r2016</title>
<ellipse fill="lightgrey" stroke="lightgrey" cx="1566.03" cy="-306" rx="33.57" ry="18"/>
<text text-anchor="middle" x="1566.03" y="-301.8" font-family="Times,serif" font-size="14.00">r2016</text>
</g>
<!-- r2015&#45;&gt;r2016 -->
<g id="edge40" class="edge">
<title>r2015&#45;&gt;r2016</title>
<path fill="none" stroke="black" d="M1566.03,-359.7C1566.03,-352.41 1566.03,-343.73 1566.03,-335.54"/>
<polygon fill="black" stroke="black" points="1569.53,-335.62 1566.03,-325.62 1562.53,-335.62 1569.53,-335.62"/>
</g>
<!-- r2016&#45;&gt;r2017 -->
<g id="edge41" class="edge">
<title>r2016&#45;&gt;r2017</title>
<path fill="none" stroke="black" d="M1566.03,-287.7C1566.03,-280.41 1566.03,-271.73 1566.03,-263.54"/>
<polygon fill="black" stroke="black" points="1569.53,-263.62 1566.03,-253.62 1562.53,-263.62 1569.53,-263.62"/>
</g>
<!-- r2018 -->
<g id="node60" class="node">
<title>r2018</title>
<ellipse fill="lightgrey" stroke="lightgrey" cx="1566.03" cy="-162" rx="33.57" ry="18"/>
<text text-anchor="middle" x="1566.03" y="-157.8" font-family="Times,serif" font-size="14.00">r2018</text>
</g>
<!-- r2017&#45;&gt;r2018 -->
<g id="edge42" class="edge">
<title>r2017&#45;&gt;r2018</title>
<path fill="none" stroke="black" d="M1566.03,-215.7C1566.03,-208.41 1566.03,-199.73 1566.03,-191.54"/>
<polygon fill="black" stroke="black" points="1569.53,-191.62 1566.03,-181.62 1562.53,-191.62 1569.53,-191.62"/>
</g>
<!-- r2018&#45;&gt;r2019 -->
<g id="edge43" class="edge">
<title>r2018&#45;&gt;r2019</title>
<path fill="none" stroke="black" d="M1566.03,-143.7C1566.03,-136.41 1566.03,-127.73 1566.03,-119.54"/>
<polygon fill="black" stroke="black" points="1569.53,-119.62 1566.03,-109.62 1562.53,-119.62 1569.53,-119.62"/>
</g>
<!-- r2020 -->
<g id="node62" class="node">
<title>r2020</title>
<ellipse fill="lightgrey" stroke="lightgrey" cx="1566.03" cy="-18" rx="33.57" ry="18"/>
<text text-anchor="middle" x="1566.03" y="-13.8" font-family="Times,serif" font-size="14.00">r2020</text>
</g>
<!-- r2019&#45;&gt;r2020 -->
<g id="edge44" class="edge">
<title>r2019&#45;&gt;r2020</title>
<path fill="none" stroke="black" d="M1566.03,-71.7C1566.03,-64.41 1566.03,-55.73 1566.03,-47.54"/>
<polygon fill="black" stroke="black" points="1569.53,-47.62 1566.03,-37.62 1562.53,-47.62 1569.53,-47.62"/>
</g>
</g>
</svg>
