<?xml version="1.0" encoding="UTF-8" standalone="no"?>
<!DOCTYPE svg PUBLIC "-//W3C//DTD SVG 1.1//EN"
 "http://www.w3.org/Graphics/SVG/1.1/DTD/svg11.dtd">
<!-- Generated by graphviz version 9.0.0 (20230911.1827)
 -->
<!-- Title: G Pages: 1 -->
<svg width="1532pt" height="980pt"
 viewBox="0.00 0.00 1531.60 980.00" xmlns="http://www.w3.org/2000/svg" xmlns:xlink="http://www.w3.org/1999/xlink">
<g id="graph0" class="graph" transform="scale(1 1) rotate(0) translate(4 976)">
<title>G</title>
<polygon fill="white" stroke="none" points="-4,4 -4,-976 1527.6,-976 1527.6,4 -4,4"/>
<!-- l2007 -->
<g id="node1" class="node">
<title>l2007</title>
<ellipse fill="lightblue" stroke="lightblue" cx="33.03" cy="-954" rx="33.03" ry="18"/>
<text text-anchor="middle" x="33.03" y="-949.8" font-family="Times,serif" font-size="14.00">l2007</text>
</g>
<!-- l2008 -->
<g id="node2" class="node">
<title>l2008</title>
<ellipse fill="lightblue" stroke="lightblue" cx="33.03" cy="-882" rx="33.03" ry="18"/>
<text text-anchor="middle" x="33.03" y="-877.8" font-family="Times,serif" font-size="14.00">l2008</text>
</g>
<!-- l2007&#45;&gt;l2008 -->
<g id="edge1" class="edge">
<title>l2007&#45;&gt;l2008</title>
<path fill="none" stroke="black" d="M33.03,-935.7C33.03,-928.41 33.03,-919.73 33.03,-911.54"/>
<polygon fill="black" stroke="black" points="36.53,-911.62 33.03,-901.62 29.53,-911.62 36.53,-911.62"/>
</g>
<!-- 2919327208 -->
<g id="node39" class="node">
<title>2919327208</title>
<ellipse fill="none" stroke="black" cx="424.03" cy="-162" rx="27" ry="18"/>
<text text-anchor="middle" x="424.03" y="-157.8" font-family="Times,serif" font-size="14.00">1</text>
</g>
<!-- l2007&#45;&gt;2919327208 -->
<g id="edge45" class="edge">
<title>l2007&#45;&gt;2919327208</title>
<path fill="none" stroke="lightgray" d="M65.28,-949.4C165.05,-937.37 462.03,-894.55 462.03,-811 462.03,-811 462.03,-811 462.03,-449 462.03,-342.8 567.96,-308.07 515.03,-216 503.12,-195.27 479.63,-181.89 459.5,-173.76"/>
<polygon fill="lightgray" stroke="lightgray" points="460.77,-170.5 450.17,-170.29 458.33,-177.06 460.77,-170.5"/>
</g>
<!-- l2009 -->
<g id="node3" class="node">
<title>l2009</title>
<ellipse fill="lightblue" stroke="lightblue" cx="33.03" cy="-810" rx="33.03" ry="18"/>
<text text-anchor="middle" x="33.03" y="-805.8" font-family="Times,serif" font-size="14.00">l2009</text>
</g>
<!-- l2008&#45;&gt;l2009 -->
<g id="edge2" class="edge">
<title>l2008&#45;&gt;l2009</title>
<path fill="none" stroke="black" d="M33.03,-863.7C33.03,-856.41 33.03,-847.73 33.03,-839.54"/>
<polygon fill="black" stroke="black" points="36.53,-839.62 33.03,-829.62 29.53,-839.62 36.53,-839.62"/>
</g>
<!-- 2964133286 -->
<g id="node43" class="node">
<title>2964133286</title>
<ellipse fill="none" stroke="black" cx="407.03" cy="-450" rx="27" ry="18"/>
<text text-anchor="middle" x="407.03" y="-445.8" font-family="Times,serif" font-size="14.00">1</text>
</g>
<!-- l2008&#45;&gt;2964133286 -->
<g id="edge48" class="edge">
<title>l2008&#45;&gt;2964133286</title>
<path fill="none" stroke="lightgray" d="M64.6,-876.01C154.76,-860.88 407.03,-812.01 407.03,-739 407.03,-739 407.03,-739 407.03,-593 407.03,-553.74 407.03,-508.38 407.03,-479.69"/>
<polygon fill="lightgray" stroke="lightgray" points="410.53,-480 407.03,-470 403.53,-480 410.53,-480"/>
</g>
<!-- l2010 -->
<g id="node4" class="node">
<title>l2010</title>
<ellipse fill="lightblue" stroke="lightblue" cx="33.03" cy="-738" rx="33.03" ry="18"/>
<text text-anchor="middle" x="33.03" y="-733.8" font-family="Times,serif" font-size="14.00">l2010</text>
</g>
<!-- l2009&#45;&gt;l2010 -->
<g id="edge3" class="edge">
<title>l2009&#45;&gt;l2010</title>
<path fill="none" stroke="black" d="M33.03,-791.7C33.03,-784.41 33.03,-775.73 33.03,-767.54"/>
<polygon fill="black" stroke="black" points="36.53,-767.62 33.03,-757.62 29.53,-767.62 36.53,-767.62"/>
</g>
<!-- l2011 -->
<g id="node5" class="node">
<title>l2011</title>
<ellipse fill="lightblue" stroke="lightblue" cx="33.03" cy="-666" rx="33.03" ry="18"/>
<text text-anchor="middle" x="33.03" y="-661.8" font-family="Times,serif" font-size="14.00">l2011</text>
</g>
<!-- l2010&#45;&gt;l2011 -->
<g id="edge4" class="edge">
<title>l2010&#45;&gt;l2011</title>
<path fill="none" stroke="black" d="M33.03,-719.7C33.03,-712.41 33.03,-703.73 33.03,-695.54"/>
<polygon fill="black" stroke="black" points="36.53,-695.62 33.03,-685.62 29.53,-695.62 36.53,-695.62"/>
</g>
<!-- 1968103943 -->
<g id="node16" class="node">
<title>1968103943</title>
<ellipse fill="none" stroke="black" cx="352.03" cy="-522" rx="27" ry="18"/>
<text text-anchor="middle" x="352.03" y="-517.8" font-family="Times,serif" font-size="14.00">65</text>
</g>
<!-- l2010&#45;&gt;1968103943 -->
<g id="edge76" class="edge">
<title>l2010&#45;&gt;1968103943</title>
<path fill="none" stroke="lightgray" d="M52.99,-723.61C107.89,-686.79 261.26,-583.9 324.37,-541.56"/>
<polygon fill="lightgray" stroke="lightgray" points="326.08,-544.62 332.44,-536.15 322.18,-538.81 326.08,-544.62"/>
</g>
<!-- l2012 -->
<g id="node6" class="node">
<title>l2012</title>
<ellipse fill="lightblue" stroke="lightblue" cx="33.03" cy="-594" rx="33.03" ry="18"/>
<text text-anchor="middle" x="33.03" y="-589.8" font-family="Times,serif" font-size="14.00">l2012</text>
</g>
<!-- l2011&#45;&gt;l2012 -->
<g id="edge5" class="edge">
<title>l2011&#45;&gt;l2012</title>
<path fill="none" stroke="black" d="M33.03,-647.7C33.03,-640.41 33.03,-631.73 33.03,-623.54"/>
<polygon fill="black" stroke="black" points="36.53,-623.62 33.03,-613.62 29.53,-623.62 36.53,-623.62"/>
</g>
<!-- l2013 -->
<g id="node7" class="node">
<title>l2013</title>
<ellipse fill="lightblue" stroke="lightblue" cx="33.03" cy="-522" rx="33.03" ry="18"/>
<text text-anchor="middle" x="33.03" y="-517.8" font-family="Times,serif" font-size="14.00">l2013</text>
</g>
<!-- l2012&#45;&gt;l2013 -->
<g id="edge6" class="edge">
<title>l2012&#45;&gt;l2013</title>
<path fill="none" stroke="black" d="M33.03,-575.7C33.03,-568.41 33.03,-559.73 33.03,-551.54"/>
<polygon fill="black" stroke="black" points="36.53,-551.62 33.03,-541.62 29.53,-551.62 36.53,-551.62"/>
</g>
<!-- l2012&#45;&gt;1968103943 -->
<g id="edge49" class="edge">
<title>l2012&#45;&gt;1968103943</title>
<path fill="none" stroke="lightgray" d="M65.23,-589.04C117.55,-582.13 223.95,-566.05 311.03,-540 313.81,-539.17 316.66,-538.21 319.49,-537.19"/>
<polygon fill="lightgray" stroke="lightgray" points="320.75,-540.46 328.79,-533.57 318.21,-533.94 320.75,-540.46"/>
</g>
<!-- 2221768484 -->
<g id="node27" class="node">
<title>2221768484</title>
<ellipse fill="none" stroke="black" cx="213.03" cy="-378" rx="27" ry="18"/>
<text text-anchor="middle" x="213.03" y="-373.8" font-family="Times,serif" font-size="14.00">14</text>
</g>
<!-- l2012&#45;&gt;2221768484 -->
<g id="edge69" class="edge">
<title>l2012&#45;&gt;2221768484</title>
<path fill="none" stroke="lightgray" d="M64.87,-588.87C127.12,-578.76 261.91,-546.21 297.03,-451"/>
<path fill="none" stroke="lightgray" d="M297.03,-449C316.49,-425.54 278.5,-403.97 247.46,-391.15"/>
<polygon fill="lightgray" stroke="lightgray" points="248.88,-387.95 238.29,-387.54 246.32,-394.46 248.88,-387.95"/>
</g>
<!-- 2536716774 -->
<g id="node29" class="node">
<title>2536716774</title>
<ellipse fill="none" stroke="black" cx="1261.03" cy="-306" rx="27" ry="18"/>
<text text-anchor="middle" x="1261.03" y="-301.8" font-family="Times,serif" font-size="14.00">12</text>
</g>
<!-- l2012&#45;&gt;2536716774 -->
<g id="edge54" class="edge">
<title>l2012&#45;&gt;2536716774</title>
<path fill="none" stroke="lightgray" d="M66.38,-593.07C238.01,-593.22 1017.43,-591.08 1111.03,-540 1192.13,-495.75 1235.97,-386.77 1252.81,-335.08"/>
<polygon fill="lightgray" stroke="lightgray" points="1256.15,-336.13 1255.81,-325.54 1249.47,-334.03 1256.15,-336.13"/>
</g>
<!-- 2594852553 -->
<g id="node33" class="node">
<title>2594852553</title>
<ellipse fill="none" stroke="black" cx="479.03" cy="-234" rx="27" ry="18"/>
<text text-anchor="middle" x="479.03" y="-229.8" font-family="Times,serif" font-size="14.00">0</text>
</g>
<!-- l2012&#45;&gt;2594852553 -->
<g id="edge55" class="edge">
<title>l2012&#45;&gt;2594852553</title>
<path fill="none" stroke="lightgray" d="M297.03,-449C331.17,-407.85 367.71,-434.28 405.03,-396 442.08,-358 462.8,-298.11 472.37,-263.08"/>
<polygon fill="lightgray" stroke="lightgray" points="475.69,-264.25 474.82,-253.69 468.91,-262.49 475.69,-264.25"/>
</g>
<!-- 2746030262 -->
<g id="node35" class="node">
<title>2746030262</title>
<ellipse fill="none" stroke="black" cx="297.03" cy="-234" rx="27" ry="18"/>
<text text-anchor="middle" x="297.03" y="-229.8" font-family="Times,serif" font-size="14.00">4</text>
</g>
<!-- l2012&#45;&gt;2746030262 -->
<g id="edge51" class="edge">
<title>l2012&#45;&gt;2746030262</title>
<path fill="none" stroke="lightgray" d="M297.03,-305C300.19,-291.64 300.56,-276.45 299.99,-263.64"/>
<polygon fill="lightgray" stroke="lightgray" points="303.49,-263.48 299.32,-253.74 296.5,-263.95 303.49,-263.48"/>
</g>
<!-- l2012&#45;&gt;2919327208 -->
<g id="edge53" class="edge">
<title>l2012&#45;&gt;2919327208</title>
<path fill="none" stroke="lightgray" stroke-width="2" d="M297.03,-305C309.32,-252.96 372.15,-294.16 405.03,-252 418.03,-235.34 422.63,-211.8 424.06,-193.11"/>
<polygon fill="lightgray" stroke="lightgray" stroke-width="2" points="427.55,-193.42 424.49,-183.27 420.56,-193.11 427.55,-193.42"/>
</g>
<!-- 2964336877 -->
<g id="node44" class="node">
<title>2964336877</title>
<ellipse fill="none" stroke="black" cx="369.03" cy="-234" rx="27" ry="18"/>
<text text-anchor="middle" x="369.03" y="-229.8" font-family="Times,serif" font-size="14.00">1</text>
</g>
<!-- l2012&#45;&gt;2964336877 -->
<g id="edge52" class="edge">
<title>l2012&#45;&gt;2964336877</title>
<path fill="none" stroke="lightgray" d="M297.03,-305C302.41,-282.24 321.92,-264.11 339.28,-252.01"/>
<polygon fill="lightgray" stroke="lightgray" points="340.88,-255.14 347.33,-246.74 337.05,-249.29 340.88,-255.14"/>
</g>
<!-- 2969121313 -->
<g id="node45" class="node">
<title>2969121313</title>
<ellipse fill="none" stroke="black" cx="610.03" cy="-162" rx="27" ry="18"/>
<text text-anchor="middle" x="610.03" y="-157.8" font-family="Times,serif" font-size="14.00">13</text>
</g>
<!-- l2012&#45;&gt;2969121313 -->
<g id="edge59" class="edge">
<title>l2012&#45;&gt;2969121313</title>
<path fill="none" stroke="lightgray" stroke-width="2" d="M297.03,-449C337.89,-399.14 380.08,-434.15 432.03,-396 509.6,-339.04 569.67,-239.15 595.79,-190.79"/>
<polygon fill="lightgray" stroke="lightgray" stroke-width="2" points="598.82,-192.55 600.41,-182.07 592.64,-189.27 598.82,-192.55"/>
</g>
<!-- 3008702223 -->
<g id="node46" class="node">
<title>3008702223</title>
<ellipse fill="none" stroke="black" cx="686.03" cy="-90" rx="27" ry="18"/>
<text text-anchor="middle" x="686.03" y="-85.8" font-family="Times,serif" font-size="14.00">2</text>
</g>
<!-- l2012&#45;&gt;3008702223 -->
<g id="edge60" class="edge">
<title>l2012&#45;&gt;3008702223</title>
<path fill="none" stroke="lightgray" stroke-width="2" d="M297.03,-449C334.37,-398.12 283.58,-368.66 297.03,-307"/>
<path fill="none" stroke="lightgray" stroke-width="2" d="M297.03,-305C301.56,-276.89 269.4,-279.22 261.03,-252 256.33,-236.71 252.98,-229.82 261.03,-216 293.7,-159.94 326.99,-166 388.03,-144 476.82,-112 587.7,-98.82 645.98,-93.79"/>
<polygon fill="lightgray" stroke="lightgray" stroke-width="2" points="646.24,-97.28 655.92,-92.98 645.67,-90.31 646.24,-97.28"/>
</g>
<!-- l2014 -->
<g id="node8" class="node">
<title>l2014</title>
<ellipse fill="lightblue" stroke="lightblue" cx="33.03" cy="-450" rx="33.03" ry="18"/>
<text text-anchor="middle" x="33.03" y="-445.8" font-family="Times,serif" font-size="14.00">l2014</text>
</g>
<!-- l2013&#45;&gt;l2014 -->
<g id="edge7" class="edge">
<title>l2013&#45;&gt;l2014</title>
<path fill="none" stroke="black" d="M33.03,-503.7C33.03,-496.41 33.03,-487.73 33.03,-479.54"/>
<polygon fill="black" stroke="black" points="36.53,-479.62 33.03,-469.62 29.53,-479.62 36.53,-479.62"/>
</g>
<!-- l2015 -->
<g id="node9" class="node">
<title>l2015</title>
<ellipse fill="lightblue" stroke="lightblue" cx="33.03" cy="-378" rx="33.03" ry="18"/>
<text text-anchor="middle" x="33.03" y="-373.8" font-family="Times,serif" font-size="14.00">l2015</text>
</g>
<!-- l2014&#45;&gt;l2015 -->
<g id="edge8" class="edge">
<title>l2014&#45;&gt;l2015</title>
<path fill="none" stroke="black" d="M33.03,-431.7C33.03,-424.41 33.03,-415.73 33.03,-407.54"/>
<polygon fill="black" stroke="black" points="36.53,-407.62 33.03,-397.62 29.53,-407.62 36.53,-407.62"/>
</g>
<!-- 2074407292 -->
<g id="node22" class="node">
<title>2074407292</title>
<ellipse fill="none" stroke="black" cx="1373.03" cy="-450" rx="27" ry="18"/>
<text text-anchor="middle" x="1373.03" y="-445.8" font-family="Times,serif" font-size="14.00">33</text>
</g>
<!-- l2014&#45;&gt;2074407292 -->
<g id="edge56" class="edge">
<title>l2014&#45;&gt;2074407292</title>
<path fill="none" stroke="lightgray" d="M64.78,-455.86C113.47,-464.51 209.61,-480.3 292.03,-486 349.45,-489.97 1273.72,-505.05 1328.03,-486 1336.08,-483.18 1343.76,-478.24 1350.42,-472.91"/>
<polygon fill="lightgray" stroke="lightgray" points="1352.46,-475.78 1357.68,-466.56 1347.85,-470.52 1352.46,-475.78"/>
</g>
<!-- 2217229052 -->
<g id="node26" class="node">
<title>2217229052</title>
<ellipse fill="none" stroke="black" cx="111.03" cy="-378" rx="27" ry="18"/>
<text text-anchor="middle" x="111.03" y="-373.8" font-family="Times,serif" font-size="14.00">7</text>
</g>
<!-- l2014&#45;&gt;2217229052 -->
<g id="edge46" class="edge">
<title>l2014&#45;&gt;2217229052</title>
<path fill="none" stroke="lightgray" d="M49.58,-434.15C60.44,-424.4 74.84,-411.48 86.97,-400.6"/>
<polygon fill="lightgray" stroke="lightgray" points="89.08,-403.4 94.19,-394.12 84.41,-398.19 89.08,-403.4"/>
</g>
<!-- l2014&#45;&gt;2221768484 -->
<g id="edge47" class="edge">
<title>l2014&#45;&gt;2221768484</title>
<path fill="none" stroke="lightgray" d="M59.21,-438.82C90.97,-426.47 144.58,-405.62 179.38,-392.09"/>
<polygon fill="lightgray" stroke="lightgray" points="180.51,-395.4 188.56,-388.52 177.97,-388.88 180.51,-395.4"/>
</g>
<!-- 2293704766 -->
<g id="node28" class="node">
<title>2293704766</title>
<ellipse fill="none" stroke="black" cx="369.03" cy="-378" rx="27" ry="18"/>
<text text-anchor="middle" x="369.03" y="-373.8" font-family="Times,serif" font-size="14.00">2</text>
</g>
<!-- l2014&#45;&gt;2293704766 -->
<g id="edge80" class="edge">
<title>l2014&#45;&gt;2293704766</title>
<path fill="none" stroke="lightgray" stroke-width="2" d="M63.74,-442.6C125.4,-429.76 264.11,-400.86 331.23,-386.88"/>
<polygon fill="lightgray" stroke="lightgray" stroke-width="2" points="331.61,-390.37 340.69,-384.91 330.19,-383.52 331.61,-390.37"/>
</g>
<!-- l2016 -->
<g id="node10" class="node">
<title>l2016</title>
<ellipse fill="lightblue" stroke="lightblue" cx="33.03" cy="-306" rx="33.03" ry="18"/>
<text text-anchor="middle" x="33.03" y="-301.8" font-family="Times,serif" font-size="14.00">l2016</text>
</g>
<!-- l2015&#45;&gt;l2016 -->
<g id="edge9" class="edge">
<title>l2015&#45;&gt;l2016</title>
<path fill="none" stroke="black" d="M33.03,-359.7C33.03,-352.41 33.03,-343.73 33.03,-335.54"/>
<polygon fill="black" stroke="black" points="36.53,-335.62 33.03,-325.62 29.53,-335.62 36.53,-335.62"/>
</g>
<!-- l2017 -->
<g id="node11" class="node">
<title>l2017</title>
<ellipse fill="lightblue" stroke="lightblue" cx="33.03" cy="-234" rx="33.03" ry="18"/>
<text text-anchor="middle" x="33.03" y="-229.8" font-family="Times,serif" font-size="14.00">l2017</text>
</g>
<!-- l2016&#45;&gt;l2017 -->
<g id="edge10" class="edge">
<title>l2016&#45;&gt;l2017</title>
<path fill="none" stroke="black" d="M33.03,-287.7C33.03,-280.41 33.03,-271.73 33.03,-263.54"/>
<polygon fill="black" stroke="black" points="36.53,-263.62 33.03,-253.62 29.53,-263.62 36.53,-263.62"/>
</g>
<!-- 2549265357 -->
<g id="node30" class="node">
<title>2549265357</title>
<ellipse fill="none" stroke="black" cx="111.03" cy="-306" rx="27" ry="18"/>
<text text-anchor="middle" x="111.03" y="-301.8" font-family="Times,serif" font-size="14.00">6</text>
</g>
<!-- l2016&#45;&gt;2549265357 -->
<g id="edge72" class="edge">
<title>l2016&#45;&gt;2549265357</title>
<path fill="none" stroke="lightgray" d="M66.55,-306C68.41,-306 70.27,-306 72.14,-306"/>
<polygon fill="lightgray" stroke="lightgray" points="72.06,-309.5 82.06,-306 72.06,-302.5 72.06,-309.5"/>
</g>
<!-- 2756042034 -->
<g id="node36" class="node">
<title>2756042034</title>
<ellipse fill="none" stroke="black" cx="149.03" cy="-234" rx="27" ry="18"/>
<text text-anchor="middle" x="149.03" y="-229.8" font-family="Times,serif" font-size="14.00">0</text>
</g>
<!-- l2016&#45;&gt;2756042034 -->
<g id="edge71" class="edge">
<title>l2016&#45;&gt;2756042034</title>
<path fill="none" stroke="lightgray" stroke-width="2" d="M54.58,-292C72.55,-281.16 98.36,-265.58 118.46,-253.45"/>
<polygon fill="lightgray" stroke="lightgray" stroke-width="2" points="120.19,-256.5 126.94,-248.33 116.57,-250.5 120.19,-256.5"/>
</g>
<!-- 2787099913 -->
<g id="node37" class="node">
<title>2787099913</title>
<ellipse fill="none" stroke="black" cx="149.03" cy="-162" rx="27" ry="18"/>
<text text-anchor="middle" x="149.03" y="-157.8" font-family="Times,serif" font-size="14.00">3</text>
</g>
<!-- l2016&#45;&gt;2787099913 -->
<g id="edge57" class="edge">
<title>l2016&#45;&gt;2787099913</title>
<path fill="none" stroke="lightgray" d="M58.69,-294.29C64.06,-292.14 69.71,-289.94 75.03,-288 133.25,-266.72 165.82,-283.81 204.03,-235"/>
<path fill="none" stroke="lightgray" d="M204.03,-233C217.95,-215.22 198.07,-194.94 178.44,-180.8"/>
<polygon fill="lightgray" stroke="lightgray" points="180.46,-177.94 170.22,-175.24 176.54,-183.74 180.46,-177.94"/>
</g>
<!-- 2942393843 -->
<g id="node40" class="node">
<title>2942393843</title>
<ellipse fill="none" stroke="black" cx="758.03" cy="-90" rx="27" ry="18"/>
<text text-anchor="middle" x="758.03" y="-85.8" font-family="Times,serif" font-size="14.00">5</text>
</g>
<!-- l2016&#45;&gt;2942393843 -->
<g id="edge50" class="edge">
<title>l2016&#45;&gt;2942393843</title>
<path fill="none" stroke="lightgray" d="M204.03,-233C260.03,-161.47 300.7,-169.01 388.03,-144 531.57,-102.89 578.31,-148.44 722.03,-108 723.66,-107.54 725.29,-107.02 726.93,-106.45"/>
<polygon fill="lightgray" stroke="lightgray" points="728.22,-109.7 736.15,-102.68 725.57,-103.22 728.22,-109.7"/>
</g>
<!-- 2951728686 -->
<g id="node41" class="node">
<title>2951728686</title>
<ellipse fill="none" stroke="black" cx="221.03" cy="-162" rx="27" ry="18"/>
<text text-anchor="middle" x="221.03" y="-157.8" font-family="Times,serif" font-size="14.00">0</text>
</g>
<!-- l2016&#45;&gt;2951728686 -->
<g id="edge58" class="edge">
<title>l2016&#45;&gt;2951728686</title>
<path fill="none" stroke="lightgray" d="M204.03,-233C213.22,-221.27 217.53,-205.3 219.53,-191.58"/>
<polygon fill="lightgray" stroke="lightgray" points="222.99,-192.08 220.58,-181.77 216.03,-191.33 222.99,-192.08"/>
</g>
<!-- l2016&#45;&gt;3008702223 -->
<g id="edge70" class="edge">
<title>l2016&#45;&gt;3008702223</title>
<path fill="none" stroke="lightgray" d="M47.38,-289.75C56.28,-279.65 67.43,-265.77 75.03,-252 99.62,-207.45 72.91,-175.29 113.03,-144 155.11,-111.19 526.01,-96.23 647.61,-92.18"/>
<polygon fill="lightgray" stroke="lightgray" points="647.51,-95.68 657.39,-91.86 647.28,-88.69 647.51,-95.68"/>
</g>
<!-- l2018 -->
<g id="node12" class="node">
<title>l2018</title>
<ellipse fill="lightblue" stroke="lightblue" cx="33.03" cy="-162" rx="33.03" ry="18"/>
<text text-anchor="middle" x="33.03" y="-157.8" font-family="Times,serif" font-size="14.00">l2018</text>
</g>
<!-- l2017&#45;&gt;l2018 -->
<g id="edge11" class="edge">
<title>l2017&#45;&gt;l2018</title>
<path fill="none" stroke="black" d="M33.03,-215.7C33.03,-208.41 33.03,-199.73 33.03,-191.54"/>
<polygon fill="black" stroke="black" points="36.53,-191.62 33.03,-181.62 29.53,-191.62 36.53,-191.62"/>
</g>
<!-- l2019 -->
<g id="node13" class="node">
<title>l2019</title>
<ellipse fill="lightblue" stroke="lightblue" cx="33.03" cy="-90" rx="33.03" ry="18"/>
<text text-anchor="middle" x="33.03" y="-85.8" font-family="Times,serif" font-size="14.00">l2019</text>
</g>
<!-- l2018&#45;&gt;l2019 -->
<g id="edge12" class="edge">
<title>l2018&#45;&gt;l2019</title>
<path fill="none" stroke="black" d="M33.03,-143.7C33.03,-136.41 33.03,-127.73 33.03,-119.54"/>
<polygon fill="black" stroke="black" points="36.53,-119.62 33.03,-109.62 29.53,-119.62 36.53,-119.62"/>
</g>
<!-- l2020 -->
<g id="node14" class="node">
<title>l2020</title>
<ellipse fill="lightblue" stroke="lightblue" cx="33.03" cy="-18" rx="33.03" ry="18"/>
<text text-anchor="middle" x="33.03" y="-13.8" font-family="Times,serif" font-size="14.00">l2020</text>
</g>
<!-- l2019&#45;&gt;l2020 -->
<g id="edge13" class="edge">
<title>l2019&#45;&gt;l2020</title>
<path fill="none" stroke="black" d="M33.03,-71.7C33.03,-64.41 33.03,-55.73 33.03,-47.54"/>
<polygon fill="black" stroke="black" points="36.53,-47.62 33.03,-37.62 29.53,-47.62 36.53,-47.62"/>
</g>
<!-- 1256453626 -->
<g id="node15" class="node">
<title>1256453626</title>
<ellipse fill="none" stroke="black" cx="627.03" cy="-378" rx="27" ry="18"/>
<text text-anchor="middle" x="627.03" y="-373.8" font-family="Times,serif" font-size="14.00">4</text>
</g>
<!-- 1256453626&#45;&gt;2969121313 -->
<g id="edge24" class="edge">
<title>1256453626&#45;&gt;2969121313</title>
<path fill="none" stroke="black" d="M625.67,-359.85C622.76,-323.14 615.88,-236.66 612.3,-191.53"/>
<polygon fill="black" stroke="black" points="615.8,-191.43 611.52,-181.74 608.83,-191.99 615.8,-191.43"/>
</g>
<!-- 2010627475 -->
<g id="node17" class="node">
<title>2010627475</title>
<ellipse fill="none" stroke="black" cx="834.03" cy="-522" rx="27" ry="18"/>
<text text-anchor="middle" x="834.03" y="-517.8" font-family="Times,serif" font-size="14.00">20</text>
</g>
<!-- r2019 -->
<g id="node61" class="node">
<title>r2019</title>
<ellipse fill="lightgrey" stroke="lightgrey" cx="1490.03" cy="-90" rx="33.57" ry="18"/>
<text text-anchor="middle" x="1490.03" y="-85.8" font-family="Times,serif" font-size="14.00">r2019</text>
</g>
<!-- 2010627475&#45;&gt;r2019 -->
<g id="edge79" class="edge">
<title>2010627475&#45;&gt;r2019</title>
<path fill="none" stroke="lightgray" d="M829.98,-504.07C818.72,-452.32 792.91,-294.98 874.03,-216 929.42,-162.07 1148.84,-210.13 1220.03,-180 1242.99,-170.29 1240.74,-155.14 1263.03,-144 1322.11,-114.49 1398.1,-101.07 1445.44,-95.21"/>
<polygon fill="lightgray" stroke="lightgray" points="1445.8,-98.7 1455.33,-94.06 1444.99,-91.74 1445.8,-98.7"/>
</g>
<!-- 2011037557 -->
<g id="node18" class="node">
<title>2011037557</title>
<ellipse fill="none" stroke="black" cx="1075.03" cy="-378" rx="27" ry="18"/>
<text text-anchor="middle" x="1075.03" y="-373.8" font-family="Times,serif" font-size="14.00">0</text>
</g>
<!-- 2033389579 -->
<g id="node19" class="node">
<title>2033389579</title>
<ellipse fill="none" stroke="black" cx="1301.03" cy="-450" rx="27" ry="18"/>
<text text-anchor="middle" x="1301.03" y="-445.8" font-family="Times,serif" font-size="14.00">100</text>
</g>
<!-- 2033389579&#45;&gt;2942393843 -->
<g id="edge25" class="edge">
<title>2033389579&#45;&gt;2942393843</title>
<path fill="none" stroke="black" d="M1279.66,-438.66C1242.07,-418.81 1168.03,-371.52 1168.03,-307 1168.03,-307 1168.03,-307 1168.03,-233 1168.03,-154.65 897.33,-109.87 795.85,-95.84"/>
<polygon fill="black" stroke="black" points="796.5,-92.39 786.12,-94.52 795.56,-99.33 796.5,-92.39"/>
</g>
<!-- r2015 -->
<g id="node57" class="node">
<title>r2015</title>
<ellipse fill="lightgrey" stroke="lightgrey" cx="1490.03" cy="-378" rx="33.57" ry="18"/>
<text text-anchor="middle" x="1490.03" y="-373.8" font-family="Times,serif" font-size="14.00">r2015</text>
</g>
<!-- 2033389579&#45;&gt;r2015 -->
<g id="edge62" class="edge">
<title>2033389579&#45;&gt;r2015</title>
<path fill="none" stroke="lightgray" stroke-width="5" d="M1322.18,-438.55C1327.02,-436.29 1332.17,-433.98 1337.03,-432 1373.22,-417.24 1415.22,-402.88 1446.05,-392.84"/>
<polygon fill="lightgray" stroke="lightgray" stroke-width="5" points="1447.38,-397.01 1455.56,-389.78 1444.7,-388.68 1447.38,-397.01"/>
</g>
<!-- r2017 -->
<g id="node59" class="node">
<title>r2017</title>
<ellipse fill="lightgrey" stroke="lightgrey" cx="1490.03" cy="-234" rx="33.57" ry="18"/>
<text text-anchor="middle" x="1490.03" y="-229.8" font-family="Times,serif" font-size="14.00">r2017</text>
</g>
<!-- 2033389579&#45;&gt;r2017 -->
<g id="edge75" class="edge">
<title>2033389579&#45;&gt;r2017</title>
<path fill="none" stroke="lightgray" d="M1311.41,-432.91C1331.26,-402.73 1376.86,-336.33 1424.03,-288 1435.29,-276.47 1449.02,-265.09 1461.03,-255.85"/>
<polygon fill="lightgray" stroke="lightgray" points="1463.12,-258.65 1469.01,-249.84 1458.91,-253.06 1463.12,-258.65"/>
</g>
<!-- 2033389579&#45;&gt;r2019 -->
<g id="edge68" class="edge">
<title>2033389579&#45;&gt;r2019</title>
<path fill="none" stroke="lightgray" stroke-width="5" d="M1285.53,-435.11C1256.23,-407.08 1197.96,-341.85 1225.03,-288 1225.44,-287.2 1387.96,-166.66 1458.26,-114.55"/>
<polygon fill="lightgray" stroke="lightgray" stroke-width="5" points="1460.57,-118.28 1466,-108.81 1455.36,-111.25 1460.57,-118.28"/>
</g>
<!-- 2064444594 -->
<g id="node20" class="node">
<title>2064444594</title>
<ellipse fill="none" stroke="black" cx="1339.03" cy="-522" rx="27" ry="18"/>
<text text-anchor="middle" x="1339.03" y="-517.8" font-family="Times,serif" font-size="14.00">9</text>
</g>
<!-- 2092272247 -->
<g id="node24" class="node">
<title>2092272247</title>
<ellipse fill="none" stroke="black" cx="1411.03" cy="-522" rx="27" ry="18"/>
<text text-anchor="middle" x="1411.03" y="-517.8" font-family="Times,serif" font-size="14.00">4</text>
</g>
<!-- 2064444594&#45;&gt;2092272247 -->
<g id="edge27" class="edge">
<title>2064444594&#45;&gt;2092272247</title>
<path fill="none" stroke="black" d="M1366.31,-522C1368.32,-522 1370.32,-522 1372.32,-522"/>
<polygon fill="black" stroke="black" points="1372.27,-525.5 1382.27,-522 1372.27,-518.5 1372.27,-525.5"/>
</g>
<!-- 2070151446 -->
<g id="node21" class="node">
<title>2070151446</title>
<ellipse fill="none" stroke="black" cx="1020.03" cy="-450" rx="27" ry="18"/>
<text text-anchor="middle" x="1020.03" y="-445.8" font-family="Times,serif" font-size="14.00">12</text>
</g>
<!-- 2070151446&#45;&gt;2011037557 -->
<g id="edge30" class="edge">
<title>2070151446&#45;&gt;2011037557</title>
<path fill="none" stroke="black" d="M1032.24,-433.46C1039.15,-424.67 1047.94,-413.48 1055.76,-403.53"/>
<polygon fill="black" stroke="black" points="1058.5,-405.71 1061.93,-395.68 1053,-401.38 1058.5,-405.71"/>
</g>
<!-- 2578585522 -->
<g id="node32" class="node">
<title>2578585522</title>
<ellipse fill="none" stroke="black" cx="1041.03" cy="-306" rx="27" ry="18"/>
<text text-anchor="middle" x="1041.03" y="-301.8" font-family="Times,serif" font-size="14.00">2</text>
</g>
<!-- 2070151446&#45;&gt;2578585522 -->
<g id="edge28" class="edge">
<title>2070151446&#45;&gt;2578585522</title>
<path fill="none" stroke="black" d="M1022.61,-431.59C1026.15,-407.61 1032.58,-364.14 1036.83,-335.42"/>
<polygon fill="black" stroke="black" points="1040.28,-336.01 1038.28,-325.61 1033.36,-334.99 1040.28,-336.01"/>
</g>
<!-- 2619011320 -->
<g id="node34" class="node">
<title>2619011320</title>
<ellipse fill="none" stroke="black" cx="910.03" cy="-234" rx="27" ry="18"/>
<text text-anchor="middle" x="910.03" y="-229.8" font-family="Times,serif" font-size="14.00">7</text>
</g>
<!-- 2070151446&#45;&gt;2619011320 -->
<g id="edge29" class="edge">
<title>2070151446&#45;&gt;2619011320</title>
<path fill="none" stroke="black" d="M995.56,-441.68C974.27,-433.94 944.47,-419.54 929.03,-396 902.66,-355.79 903.03,-297.54 906.19,-263.24"/>
<polygon fill="black" stroke="black" points="909.63,-264 907.22,-253.68 902.67,-263.24 909.63,-264"/>
</g>
<!-- 2074407292&#45;&gt;r2015 -->
<g id="edge78" class="edge">
<title>2074407292&#45;&gt;r2015</title>
<path fill="none" stroke="lightgray" d="M1392.62,-437.28C1410.62,-426.51 1437.62,-410.36 1458.63,-397.79"/>
<polygon fill="lightgray" stroke="lightgray" points="1460.31,-400.86 1467.1,-392.72 1456.72,-394.85 1460.31,-400.86"/>
</g>
<!-- 2074407292&#45;&gt;r2017 -->
<g id="edge77" class="edge">
<title>2074407292&#45;&gt;r2017</title>
<path fill="none" stroke="lightgray" d="M1379.1,-432.31C1390.36,-402.28 1416.17,-337.64 1447.03,-288 1453.26,-277.99 1461.13,-267.76 1468.44,-258.99"/>
<polygon fill="lightgray" stroke="lightgray" points="1470.92,-261.47 1474.77,-251.6 1465.61,-256.92 1470.92,-261.47"/>
</g>
<!-- 2078106834 -->
<g id="node23" class="node">
<title>2078106834</title>
<ellipse fill="none" stroke="black" cx="1075.03" cy="-522" rx="27" ry="18"/>
<text text-anchor="middle" x="1075.03" y="-517.8" font-family="Times,serif" font-size="14.00">28</text>
</g>
<!-- 2078106834&#45;&gt;2011037557 -->
<g id="edge23" class="edge">
<title>2078106834&#45;&gt;2011037557</title>
<path fill="none" stroke="black" d="M1075.03,-503.59C1075.03,-479.61 1075.03,-436.14 1075.03,-407.42"/>
<polygon fill="black" stroke="black" points="1078.53,-407.62 1075.03,-397.62 1071.53,-407.62 1078.53,-407.62"/>
</g>
<!-- 2078106834&#45;&gt;2293704766 -->
<g id="edge22" class="edge">
<title>2078106834&#45;&gt;2293704766</title>
<path fill="none" stroke="black" d="M1049.49,-515.86C942.69,-494.38 531.66,-411.71 405.85,-386.4"/>
<polygon fill="black" stroke="black" points="406.89,-383.04 396.4,-384.5 405.51,-389.91 406.89,-383.04"/>
</g>
<!-- 2078106834&#45;&gt;2536716774 -->
<g id="edge19" class="edge">
<title>2078106834&#45;&gt;2536716774</title>
<path fill="none" stroke="black" d="M1088.59,-506.25C1098.27,-495.67 1111.54,-481.04 1123.03,-468 1165.56,-419.73 1214.33,-362.34 1241.01,-330.77"/>
<polygon fill="black" stroke="black" points="1243.48,-333.27 1247.26,-323.37 1238.13,-328.75 1243.48,-333.27"/>
</g>
<!-- 2078106834&#45;&gt;2578585522 -->
<g id="edge20" class="edge">
<title>2078106834&#45;&gt;2578585522</title>
<path fill="none" stroke="black" d="M1085.25,-505.08C1103.02,-475.18 1135.51,-409.24 1111.03,-360 1102.98,-343.81 1087.36,-331.24 1072.92,-322.42"/>
<polygon fill="black" stroke="black" points="1074.95,-319.55 1064.53,-317.66 1071.5,-325.64 1074.95,-319.55"/>
</g>
<!-- 2078106834&#45;&gt;2619011320 -->
<g id="edge21" class="edge">
<title>2078106834&#45;&gt;2619011320</title>
<path fill="none" stroke="black" d="M1052.25,-511.93C1014.32,-495.41 939.37,-456.46 909.03,-396 887.73,-353.54 895.15,-296.49 902.55,-262.94"/>
<polygon fill="black" stroke="black" points="905.87,-264.13 904.77,-253.59 899.05,-262.52 905.87,-264.13"/>
</g>
<!-- 2092272247&#45;&gt;l2012 -->
<!-- 2164053284 -->
<g id="node25" class="node">
<title>2164053284</title>
<ellipse fill="none" stroke="black" cx="1284.03" cy="-594" rx="27" ry="18"/>
<text text-anchor="middle" x="1284.03" y="-589.8" font-family="Times,serif" font-size="14.00">22</text>
</g>
<!-- r2013 -->
<g id="node55" class="node">
<title>r2013</title>
<ellipse fill="lightgrey" stroke="lightgrey" cx="1490.03" cy="-522" rx="33.57" ry="18"/>
<text text-anchor="middle" x="1490.03" y="-517.8" font-family="Times,serif" font-size="14.00">r2013</text>
</g>
<!-- 2164053284&#45;&gt;r2013 -->
<g id="edge63" class="edge">
<title>2164053284&#45;&gt;r2013</title>
<path fill="none" stroke="lightgray" d="M1308.5,-585.57C1340.52,-575.72 1398.31,-557.53 1447.03,-540 1449.07,-539.27 1451.16,-538.5 1453.26,-537.71"/>
<polygon fill="lightgray" stroke="lightgray" points="1454.26,-541.08 1462.34,-534.23 1451.75,-534.54 1454.26,-541.08"/>
</g>
<!-- 2164053284&#45;&gt;r2015 -->
<g id="edge61" class="edge">
<title>2164053284&#45;&gt;r2015</title>
<path fill="none" stroke="lightgray" stroke-width="2" d="M1282.97,-575.71C1282.72,-555.97 1285.39,-523.83 1303.03,-504 1336.1,-466.82 1367.41,-495.26 1409.03,-468 1422.75,-459.02 1450.1,-427.59 1469.2,-404.62"/>
<polygon fill="lightgray" stroke="lightgray" stroke-width="2" points="1471.74,-407.05 1475.4,-397.11 1466.33,-402.6 1471.74,-407.05"/>
</g>
<!-- 2536716774&#45;&gt;r2017 -->
<g id="edge73" class="edge">
<title>2536716774&#45;&gt;r2017</title>
<path fill="none" stroke="lightgray" d="M1285.11,-297.64C1324.44,-285.62 1402.87,-261.64 1450.47,-247.09"/>
<polygon fill="lightgray" stroke="lightgray" points="1451.31,-250.5 1459.85,-244.23 1449.26,-243.8 1451.31,-250.5"/>
</g>
<!-- 2578023882 -->
<g id="node31" class="node">
<title>2578023882</title>
<ellipse fill="none" stroke="black" cx="741.03" cy="-306" rx="27" ry="18"/>
<text text-anchor="middle" x="741.03" y="-301.8" font-family="Times,serif" font-size="14.00">6</text>
</g>
<!-- 2578023882&#45;&gt;2942393843 -->
<g id="edge31" class="edge">
<title>2578023882&#45;&gt;2942393843</title>
<path fill="none" stroke="black" d="M742.4,-287.85C745.31,-251.14 752.18,-164.66 755.77,-119.53"/>
<polygon fill="black" stroke="black" points="759.24,-119.99 756.54,-109.74 752.26,-119.43 759.24,-119.99"/>
</g>
<!-- 2578585522&#45;&gt;r2017 -->
<g id="edge66" class="edge">
<title>2578585522&#45;&gt;r2017</title>
<path fill="none" stroke="lightgray" d="M1067.44,-300.88C1142.08,-289.25 1355.06,-256.04 1446.96,-241.72"/>
<polygon fill="lightgray" stroke="lightgray" points="1447.23,-245.22 1456.57,-240.22 1446.15,-238.3 1447.23,-245.22"/>
</g>
<!-- 2896997271 -->
<g id="node38" class="node">
<title>2896997271</title>
<ellipse fill="none" stroke="black" cx="1299.03" cy="-162" rx="27" ry="18"/>
<text text-anchor="middle" x="1299.03" y="-157.8" font-family="Times,serif" font-size="14.00">20</text>
</g>
<!-- 2896997271&#45;&gt;r2019 -->
<g id="edge74" class="edge">
<title>2896997271&#45;&gt;r2019</title>
<path fill="none" stroke="lightgray" d="M1321.5,-151.43C1327.5,-148.95 1333.99,-146.32 1340.03,-144 1377.58,-129.59 1420.95,-114.43 1451.36,-104.03"/>
<polygon fill="lightgray" stroke="lightgray" points="1452.18,-107.45 1460.52,-100.91 1449.92,-100.82 1452.18,-107.45"/>
</g>
<!-- 2963233535 -->
<g id="node42" class="node">
<title>2963233535</title>
<ellipse fill="none" stroke="black" cx="758.03" cy="-522" rx="27" ry="18"/>
<text text-anchor="middle" x="758.03" y="-517.8" font-family="Times,serif" font-size="14.00">13</text>
</g>
<!-- 2963233535&#45;&gt;r2019 -->
<g id="edge81" class="edge">
<title>2963233535&#45;&gt;r2019</title>
<path fill="none" stroke="lightgray" stroke-width="2" d="M756.9,-503.83C754.46,-451.39 754.94,-292.29 843.03,-216 933.85,-137.35 1311.17,-103.61 1443.74,-94.04"/>
<polygon fill="lightgray" stroke="lightgray" stroke-width="2" points="1443.76,-97.54 1453.49,-93.35 1443.26,-90.56 1443.76,-97.54"/>
</g>
<!-- 633744573 -->
<g id="node47" class="node">
<title>633744573</title>
<ellipse fill="none" stroke="black" cx="965.03" cy="-378" rx="27" ry="18"/>
<text text-anchor="middle" x="965.03" y="-373.8" font-family="Times,serif" font-size="14.00">58</text>
</g>
<!-- 633744573&#45;&gt;2011037557 -->
<g id="edge18" class="edge">
<title>633744573&#45;&gt;2011037557</title>
<path fill="none" stroke="black" d="M992.53,-378C1007.17,-378 1021.81,-378 1036.45,-378"/>
<polygon fill="black" stroke="black" points="1036.13,-381.5 1046.13,-378 1036.13,-374.5 1036.13,-381.5"/>
</g>
<!-- 633744573&#45;&gt;2578585522 -->
<g id="edge15" class="edge">
<title>633744573&#45;&gt;2578585522</title>
<path fill="none" stroke="black" d="M980.41,-362.83C991.02,-353.06 1005.33,-339.88 1017.39,-328.78"/>
<polygon fill="black" stroke="black" points="1019.58,-331.52 1024.56,-322.17 1014.84,-326.37 1019.58,-331.52"/>
</g>
<!-- 633744573&#45;&gt;2619011320 -->
<g id="edge16" class="edge">
<title>633744573&#45;&gt;2619011320</title>
<path fill="none" stroke="black" d="M958.51,-360.15C949.16,-336.03 931.86,-291.36 920.66,-262.43"/>
<polygon fill="black" stroke="black" points="923.97,-261.3 917.1,-253.24 917.44,-263.83 923.97,-261.3"/>
</g>
<!-- 633744573&#45;&gt;2969121313 -->
<g id="edge14" class="edge">
<title>633744573&#45;&gt;2969121313</title>
<path fill="none" stroke="black" d="M938.23,-375.46C873.8,-371.24 712.56,-357.52 672.03,-324 666.63,-319.53 635.98,-235.5 619.89,-190.66"/>
<polygon fill="black" stroke="black" points="623.22,-189.58 616.56,-181.35 616.63,-191.94 623.22,-189.58"/>
</g>
<!-- 633744573&#45;&gt;3008702223 -->
<g id="edge17" class="edge">
<title>633744573&#45;&gt;3008702223</title>
<path fill="none" stroke="black" d="M937.99,-375.48C877.81,-371.49 735.68,-358.55 705.03,-324 654.26,-266.76 667.97,-167.46 678.72,-119.1"/>
<polygon fill="black" stroke="black" points="682.11,-119.97 681,-109.43 675.29,-118.36 682.11,-119.97"/>
</g>
<!-- 633744573&#45;&gt;r2015 -->
<g id="edge64" class="edge">
<title>633744573&#45;&gt;r2015</title>
<path fill="none" stroke="lightgray" stroke-width="2" d="M985.74,-389.83C1002.07,-398.44 1025.73,-409.37 1048.03,-414 1130.06,-431.02 1343.92,-434.96 1425.03,-414 1436.74,-410.97 1448.59,-405.34 1458.9,-399.41"/>
<polygon fill="lightgray" stroke="lightgray" stroke-width="2" points="1460.54,-402.51 1467.23,-394.3 1456.88,-396.55 1460.54,-402.51"/>
</g>
<!-- 633744573&#45;&gt;r2017 -->
<g id="edge65" class="edge">
<title>633744573&#45;&gt;r2017</title>
<path fill="none" stroke="lightgray" stroke-width="3" d="M986.03,-305C994.46,-297.42 994.68,-292.61 1005.03,-288 1024.88,-279.15 1324.59,-250.43 1442.7,-239.38"/>
<polygon fill="lightgray" stroke="lightgray" stroke-width="3" points="1442.67,-242.9 1452.3,-238.49 1442.02,-235.93 1442.67,-242.9"/>
</g>
<!-- 633744573&#45;&gt;r2019 -->
<g id="edge67" class="edge">
<title>633744573&#45;&gt;r2019</title>
<path fill="none" stroke="lightgray" d="M965.38,-359.67C966.68,-343.63 971.23,-320.33 986.03,-307"/>
<path fill="none" stroke="lightgray" d="M986.03,-305C994.46,-297.42 995.22,-293.66 1005.03,-288 1138.72,-210.91 1200.1,-254.89 1335.03,-180 1356.83,-167.91 1357.04,-157.44 1378.03,-144 1401.7,-128.85 1430.37,-115.36 1452.78,-105.78"/>
<polygon fill="lightgray" stroke="lightgray" points="1453.97,-109.08 1461.84,-101.99 1451.26,-102.63 1453.97,-109.08"/>
</g>
<!-- 768653336 -->
<g id="node48" class="node">
<title>768653336</title>
<ellipse fill="none" stroke="black" cx="555.03" cy="-378" rx="27" ry="18"/>
<text text-anchor="middle" x="555.03" y="-373.8" font-family="Times,serif" font-size="14.00">13</text>
</g>
<!-- 768653336&#45;&gt;1256453626 -->
<g id="edge26" class="edge">
<title>768653336&#45;&gt;1256453626</title>
<path fill="none" stroke="black" d="M582.31,-378C584.32,-378 586.32,-378 588.32,-378"/>
<polygon fill="black" stroke="black" points="588.27,-381.5 598.27,-378 588.27,-374.5 588.27,-381.5"/>
</g>
<!-- r2007 -->
<g id="node49" class="node">
<title>r2007</title>
<ellipse fill="lightgrey" stroke="lightgrey" cx="1490.03" cy="-954" rx="33.57" ry="18"/>
<text text-anchor="middle" x="1490.03" y="-949.8" font-family="Times,serif" font-size="14.00">r2007</text>
</g>
<!-- r2008 -->
<g id="node50" class="node">
<title>r2008</title>
<ellipse fill="lightgrey" stroke="lightgrey" cx="1490.03" cy="-882" rx="33.57" ry="18"/>
<text text-anchor="middle" x="1490.03" y="-877.8" font-family="Times,serif" font-size="14.00">r2008</text>
</g>
<!-- r2007&#45;&gt;r2008 -->
<g id="edge32" class="edge">
<title>r2007&#45;&gt;r2008</title>
<path fill="none" stroke="black" d="M1490.03,-935.7C1490.03,-928.41 1490.03,-919.73 1490.03,-911.54"/>
<polygon fill="black" stroke="black" points="1493.53,-911.62 1490.03,-901.62 1486.53,-911.62 1493.53,-911.62"/>
</g>
<!-- r2009 -->
<g id="node51" class="node">
<title>r2009</title>
<ellipse fill="lightgrey" stroke="lightgrey" cx="1490.03" cy="-810" rx="33.57" ry="18"/>
<text text-anchor="middle" x="1490.03" y="-805.8" font-family="Times,serif" font-size="14.00">r2009</text>
</g>
<!-- r2008&#45;&gt;r2009 -->
<g id="edge33" class="edge">
<title>r2008&#45;&gt;r2009</title>
<path fill="none" stroke="black" d="M1490.03,-863.7C1490.03,-856.41 1490.03,-847.73 1490.03,-839.54"/>
<polygon fill="black" stroke="black" points="1493.53,-839.62 1490.03,-829.62 1486.53,-839.62 1493.53,-839.62"/>
</g>
<!-- r2010 -->
<g id="node52" class="node">
<title>r2010</title>
<ellipse fill="lightgrey" stroke="lightgrey" cx="1490.03" cy="-738" rx="33.57" ry="18"/>
<text text-anchor="middle" x="1490.03" y="-733.8" font-family="Times,serif" font-size="14.00">r2010</text>
</g>
<!-- r2009&#45;&gt;r2010 -->
<g id="edge34" class="edge">
<title>r2009&#45;&gt;r2010</title>
<path fill="none" stroke="black" d="M1490.03,-791.7C1490.03,-784.41 1490.03,-775.73 1490.03,-767.54"/>
<polygon fill="black" stroke="black" points="1493.53,-767.62 1490.03,-757.62 1486.53,-767.62 1493.53,-767.62"/>
</g>
<!-- r2011 -->
<g id="node53" class="node">
<title>r2011</title>
<ellipse fill="lightgrey" stroke="lightgrey" cx="1490.03" cy="-666" rx="33.57" ry="18"/>
<text text-anchor="middle" x="1490.03" y="-661.8" font-family="Times,serif" font-size="14.00">r2011</text>
</g>
<!-- r2010&#45;&gt;r2011 -->
<g id="edge35" class="edge">
<title>r2010&#45;&gt;r2011</title>
<path fill="none" stroke="black" d="M1490.03,-719.7C1490.03,-712.41 1490.03,-703.73 1490.03,-695.54"/>
<polygon fill="black" stroke="black" points="1493.53,-695.62 1490.03,-685.62 1486.53,-695.62 1493.53,-695.62"/>
</g>
<!-- r2012 -->
<g id="node54" class="node">
<title>r2012</title>
<ellipse fill="lightgrey" stroke="lightgrey" cx="1490.03" cy="-594" rx="33.57" ry="18"/>
<text text-anchor="middle" x="1490.03" y="-589.8" font-family="Times,serif" font-size="14.00">r2012</text>
</g>
<!-- r2011&#45;&gt;r2012 -->
<g id="edge36" class="edge">
<title>r2011&#45;&gt;r2012</title>
<path fill="none" stroke="black" d="M1490.03,-647.7C1490.03,-640.41 1490.03,-631.73 1490.03,-623.54"/>
<polygon fill="black" stroke="black" points="1493.53,-623.62 1490.03,-613.62 1486.53,-623.62 1493.53,-623.62"/>
</g>
<!-- r2012&#45;&gt;r2013 -->
<g id="edge37" class="edge">
<title>r2012&#45;&gt;r2013</title>
<path fill="none" stroke="black" d="M1490.03,-575.7C1490.03,-568.41 1490.03,-559.73 1490.03,-551.54"/>
<polygon fill="black" stroke="black" points="1493.53,-551.62 1490.03,-541.62 1486.53,-551.62 1493.53,-551.62"/>
</g>
<!-- r2014 -->
<g id="node56" class="node">
<title>r2014</title>
<ellipse fill="lightgrey" stroke="lightgrey" cx="1490.03" cy="-450" rx="33.57" ry="18"/>
<text text-anchor="middle" x="1490.03" y="-445.8" font-family="Times,serif" font-size="14.00">r2014</text>
</g>
<!-- r2013&#45;&gt;r2014 -->
<g id="edge38" class="edge">
<title>r2013&#45;&gt;r2014</title>
<path fill="none" stroke="black" d="M1490.03,-503.7C1490.03,-496.41 1490.03,-487.73 1490.03,-479.54"/>
<polygon fill="black" stroke="black" points="1493.53,-479.62 1490.03,-469.62 1486.53,-479.62 1493.53,-479.62"/>
</g>
<!-- r2014&#45;&gt;r2015 -->
<g id="edge39" class="edge">
<title>r2014&#45;&gt;r2015</title>
<path fill="none" stroke="black" d="M1490.03,-431.7C1490.03,-424.41 1490.03,-415.73 1490.03,-407.54"/>
<polygon fill="black" stroke="black" points="1493.53,-407.62 1490.03,-397.62 1486.53,-407.62 1493.53,-407.62"/>
</g>
<!-- r2016 -->
<g id="node58" class="node">
<title>r2016</title>
<ellipse fill="lightgrey" stroke="lightgrey" cx="1490.03" cy="-306" rx="33.57" ry="18"/>
<text text-anchor="middle" x="1490.03" y="-301.8" font-family="Times,serif" font-size="14.00">r2016</text>
</g>
<!-- r2015&#45;&gt;r2016 -->
<g id="edge40" class="edge">
<title>r2015&#45;&gt;r2016</title>
<path fill="none" stroke="black" d="M1490.03,-359.7C1490.03,-352.41 1490.03,-343.73 1490.03,-335.54"/>
<polygon fill="black" stroke="black" points="1493.53,-335.62 1490.03,-325.62 1486.53,-335.62 1493.53,-335.62"/>
</g>
<!-- r2016&#45;&gt;r2017 -->
<g id="edge41" class="edge">
<title>r2016&#45;&gt;r2017</title>
<path fill="none" stroke="black" d="M1490.03,-287.7C1490.03,-280.41 1490.03,-271.73 1490.03,-263.54"/>
<polygon fill="black" stroke="black" points="1493.53,-263.62 1490.03,-253.62 1486.53,-263.62 1493.53,-263.62"/>
</g>
<!-- r2018 -->
<g id="node60" class="node">
<title>r2018</title>
<ellipse fill="lightgrey" stroke="lightgrey" cx="1490.03" cy="-162" rx="33.57" ry="18"/>
<text text-anchor="middle" x="1490.03" y="-157.8" font-family="Times,serif" font-size="14.00">r2018</text>
</g>
<!-- r2017&#45;&gt;r2018 -->
<g id="edge42" class="edge">
<title>r2017&#45;&gt;r2018</title>
<path fill="none" stroke="black" d="M1490.03,-215.7C1490.03,-208.41 1490.03,-199.73 1490.03,-191.54"/>
<polygon fill="black" stroke="black" points="1493.53,-191.62 1490.03,-181.62 1486.53,-191.62 1493.53,-191.62"/>
</g>
<!-- r2018&#45;&gt;r2019 -->
<g id="edge43" class="edge">
<title>r2018&#45;&gt;r2019</title>
<path fill="none" stroke="black" d="M1490.03,-143.7C1490.03,-136.41 1490.03,-127.73 1490.03,-119.54"/>
<polygon fill="black" stroke="black" points="1493.53,-119.62 1490.03,-109.62 1486.53,-119.62 1493.53,-119.62"/>
</g>
<!-- r2020 -->
<g id="node62" class="node">
<title>r2020</title>
<ellipse fill="lightgrey" stroke="lightgrey" cx="1490.03" cy="-18" rx="33.57" ry="18"/>
<text text-anchor="middle" x="1490.03" y="-13.8" font-family="Times,serif" font-size="14.00">r2020</text>
</g>
<!-- r2019&#45;&gt;r2020 -->
<g id="edge44" class="edge">
<title>r2019&#45;&gt;r2020</title>
<path fill="none" stroke="black" d="M1490.03,-71.7C1490.03,-64.41 1490.03,-55.73 1490.03,-47.54"/>
<polygon fill="black" stroke="black" points="1493.53,-47.62 1490.03,-37.62 1486.53,-47.62 1493.53,-47.62"/>
</g>
</g>
</svg>
