<?xml version="1.0" encoding="UTF-8" standalone="no"?>
<!DOCTYPE svg PUBLIC "-//W3C//DTD SVG 1.1//EN"
 "http://www.w3.org/Graphics/SVG/1.1/DTD/svg11.dtd">
<!-- Generated by graphviz version 9.0.0 (20230911.1827)
 -->
<!-- Title: G Pages: 1 -->
<svg width="1283pt" height="980pt"
 viewBox="0.00 0.00 1282.60 980.00" xmlns="http://www.w3.org/2000/svg" xmlns:xlink="http://www.w3.org/1999/xlink">
<g id="graph0" class="graph" transform="scale(1 1) rotate(0) translate(4 976)">
<title>G</title>
<polygon fill="white" stroke="none" points="-4,4 -4,-976 1278.6,-976 1278.6,4 -4,4"/>
<!-- l2007 -->
<g id="node1" class="node">
<title>l2007</title>
<ellipse fill="lightblue" stroke="lightblue" cx="33.03" cy="-954" rx="33.03" ry="18"/>
<text text-anchor="middle" x="33.03" y="-949.8" font-family="Times,serif" font-size="14.00">l2007</text>
</g>
<!-- l2008 -->
<g id="node2" class="node">
<title>l2008</title>
<ellipse fill="lightblue" stroke="lightblue" cx="33.03" cy="-882" rx="33.03" ry="18"/>
<text text-anchor="middle" x="33.03" y="-877.8" font-family="Times,serif" font-size="14.00">l2008</text>
</g>
<!-- l2007&#45;&gt;l2008 -->
<g id="edge1" class="edge">
<title>l2007&#45;&gt;l2008</title>
<path fill="none" stroke="black" d="M33.03,-935.7C33.03,-928.41 33.03,-919.73 33.03,-911.54"/>
<polygon fill="black" stroke="black" points="36.53,-911.62 33.03,-901.62 29.53,-911.62 36.53,-911.62"/>
</g>
<!-- 2919327208 -->
<g id="node39" class="node">
<title>2919327208</title>
<ellipse fill="none" stroke="black" cx="424.03" cy="-162" rx="27" ry="18"/>
<text text-anchor="middle" x="424.03" y="-157.8" font-family="Times,serif" font-size="14.00">1</text>
</g>
<!-- l2007&#45;&gt;2919327208 -->
<g id="edge45" class="edge">
<title>l2007&#45;&gt;2919327208</title>
<path fill="none" stroke="lightgray" d="M65.61,-949.8C168.71,-938.78 481.03,-898.2 481.03,-811 481.03,-811 481.03,-811 481.03,-449 481.03,-344.35 567.19,-306.73 515.03,-216 503.12,-195.27 479.63,-181.89 459.5,-173.76"/>
<polygon fill="lightgray" stroke="lightgray" points="460.77,-170.5 450.17,-170.29 458.33,-177.06 460.77,-170.5"/>
</g>
<!-- l2009 -->
<g id="node3" class="node">
<title>l2009</title>
<ellipse fill="lightblue" stroke="lightblue" cx="33.03" cy="-810" rx="33.03" ry="18"/>
<text text-anchor="middle" x="33.03" y="-805.8" font-family="Times,serif" font-size="14.00">l2009</text>
</g>
<!-- l2008&#45;&gt;l2009 -->
<g id="edge2" class="edge">
<title>l2008&#45;&gt;l2009</title>
<path fill="none" stroke="black" d="M33.03,-863.7C33.03,-856.41 33.03,-847.73 33.03,-839.54"/>
<polygon fill="black" stroke="black" points="36.53,-839.62 33.03,-829.62 29.53,-839.62 36.53,-839.62"/>
</g>
<!-- 2964133286 -->
<g id="node43" class="node">
<title>2964133286</title>
<ellipse fill="none" stroke="black" cx="426.03" cy="-450" rx="27" ry="18"/>
<text text-anchor="middle" x="426.03" y="-445.8" font-family="Times,serif" font-size="14.00">1</text>
</g>
<!-- l2008&#45;&gt;2964133286 -->
<g id="edge48" class="edge">
<title>l2008&#45;&gt;2964133286</title>
<path fill="none" stroke="lightgray" d="M64.86,-876.52C158.42,-862.48 426.03,-815.63 426.03,-739 426.03,-739 426.03,-739 426.03,-593 426.03,-553.74 426.03,-508.38 426.03,-479.69"/>
<polygon fill="lightgray" stroke="lightgray" points="429.53,-480 426.03,-470 422.53,-480 429.53,-480"/>
</g>
<!-- l2010 -->
<g id="node4" class="node">
<title>l2010</title>
<ellipse fill="lightblue" stroke="lightblue" cx="33.03" cy="-738" rx="33.03" ry="18"/>
<text text-anchor="middle" x="33.03" y="-733.8" font-family="Times,serif" font-size="14.00">l2010</text>
</g>
<!-- l2009&#45;&gt;l2010 -->
<g id="edge3" class="edge">
<title>l2009&#45;&gt;l2010</title>
<path fill="none" stroke="black" d="M33.03,-791.7C33.03,-784.41 33.03,-775.73 33.03,-767.54"/>
<polygon fill="black" stroke="black" points="36.53,-767.62 33.03,-757.62 29.53,-767.62 36.53,-767.62"/>
</g>
<!-- l2011 -->
<g id="node5" class="node">
<title>l2011</title>
<ellipse fill="lightblue" stroke="lightblue" cx="33.03" cy="-666" rx="33.03" ry="18"/>
<text text-anchor="middle" x="33.03" y="-661.8" font-family="Times,serif" font-size="14.00">l2011</text>
</g>
<!-- l2010&#45;&gt;l2011 -->
<g id="edge4" class="edge">
<title>l2010&#45;&gt;l2011</title>
<path fill="none" stroke="black" d="M33.03,-719.7C33.03,-712.41 33.03,-703.73 33.03,-695.54"/>
<polygon fill="black" stroke="black" points="36.53,-695.62 33.03,-685.62 29.53,-695.62 36.53,-695.62"/>
</g>
<!-- 1968103943 -->
<g id="node16" class="node">
<title>1968103943</title>
<ellipse fill="none" stroke="black" cx="371.03" cy="-522" rx="27" ry="18"/>
<text text-anchor="middle" x="371.03" y="-517.8" font-family="Times,serif" font-size="14.00">65</text>
</g>
<!-- l2010&#45;&gt;1968103943 -->
<g id="edge76" class="edge">
<title>l2010&#45;&gt;1968103943</title>
<path fill="none" stroke="lightgray" d="M53.92,-723.77C112.1,-686.94 276.09,-583.11 342.54,-541.04"/>
<polygon fill="lightgray" stroke="lightgray" points="344.12,-544.18 350.7,-535.88 340.38,-538.27 344.12,-544.18"/>
</g>
<!-- l2012 -->
<g id="node6" class="node">
<title>l2012</title>
<ellipse fill="lightblue" stroke="lightblue" cx="33.03" cy="-594" rx="33.03" ry="18"/>
<text text-anchor="middle" x="33.03" y="-589.8" font-family="Times,serif" font-size="14.00">l2012</text>
</g>
<!-- l2011&#45;&gt;l2012 -->
<g id="edge5" class="edge">
<title>l2011&#45;&gt;l2012</title>
<path fill="none" stroke="black" d="M33.03,-647.7C33.03,-640.41 33.03,-631.73 33.03,-623.54"/>
<polygon fill="black" stroke="black" points="36.53,-623.62 33.03,-613.62 29.53,-623.62 36.53,-623.62"/>
</g>
<!-- l2013 -->
<g id="node7" class="node">
<title>l2013</title>
<ellipse fill="lightblue" stroke="lightblue" cx="33.03" cy="-522" rx="33.03" ry="18"/>
<text text-anchor="middle" x="33.03" y="-517.8" font-family="Times,serif" font-size="14.00">l2013</text>
</g>
<!-- l2012&#45;&gt;l2013 -->
<g id="edge6" class="edge">
<title>l2012&#45;&gt;l2013</title>
<path fill="none" stroke="black" d="M33.03,-575.7C33.03,-568.41 33.03,-559.73 33.03,-551.54"/>
<polygon fill="black" stroke="black" points="36.53,-551.62 33.03,-541.62 29.53,-551.62 36.53,-551.62"/>
</g>
<!-- l2012&#45;&gt;1968103943 -->
<g id="edge49" class="edge">
<title>l2012&#45;&gt;1968103943</title>
<path fill="none" stroke="lightgray" d="M65.2,-589.57C120.27,-583.2 235.78,-567.6 330.03,-540 332.82,-539.19 335.67,-538.24 338.5,-537.23"/>
<polygon fill="lightgray" stroke="lightgray" points="339.75,-540.5 347.81,-533.62 337.22,-533.97 339.75,-540.5"/>
</g>
<!-- 2221768484 -->
<g id="node27" class="node">
<title>2221768484</title>
<ellipse fill="none" stroke="black" cx="231.03" cy="-378" rx="27" ry="18"/>
<text text-anchor="middle" x="231.03" y="-373.8" font-family="Times,serif" font-size="14.00">14</text>
</g>
<!-- l2012&#45;&gt;2221768484 -->
<g id="edge69" class="edge">
<title>l2012&#45;&gt;2221768484</title>
<path fill="none" stroke="lightgray" d="M66.26,-592.48C141.33,-589.2 321.38,-568.91 371.03,-451"/>
<path fill="none" stroke="lightgray" d="M371.03,-449C380.74,-427.26 311.55,-402.48 266.93,-389.01"/>
<polygon fill="lightgray" stroke="lightgray" points="267.94,-385.66 257.36,-386.19 265.96,-392.37 267.94,-385.66"/>
</g>
<!-- 2536716774 -->
<g id="node29" class="node">
<title>2536716774</title>
<ellipse fill="none" stroke="black" cx="1035.03" cy="-306" rx="27" ry="18"/>
<text text-anchor="middle" x="1035.03" y="-301.8" font-family="Times,serif" font-size="14.00">12</text>
</g>
<!-- l2012&#45;&gt;2536716774 -->
<g id="edge54" class="edge">
<title>l2012&#45;&gt;2536716774</title>
<path fill="none" stroke="lightgray" d="M65.96,-591.86C191.02,-587.35 636.57,-569.52 775.03,-540 907.96,-511.66 990.37,-507.37 1035.03,-379"/>
</g>
<!-- 2594852553 -->
<g id="node33" class="node">
<title>2594852553</title>
<ellipse fill="none" stroke="black" cx="479.03" cy="-234" rx="27" ry="18"/>
<text text-anchor="middle" x="479.03" y="-229.8" font-family="Times,serif" font-size="14.00">0</text>
</g>
<!-- l2012&#45;&gt;2594852553 -->
<g id="edge55" class="edge">
<title>l2012&#45;&gt;2594852553</title>
<path fill="none" stroke="lightgray" d="M371.03,-449C384.61,-418.58 406.41,-424.27 424.03,-396 450.47,-353.58 465.99,-296.89 473.47,-263.34"/>
<polygon fill="lightgray" stroke="lightgray" points="476.89,-264.08 475.55,-253.57 470.05,-262.62 476.89,-264.08"/>
</g>
<!-- 2746030262 -->
<g id="node35" class="node">
<title>2746030262</title>
<ellipse fill="none" stroke="black" cx="297.03" cy="-234" rx="27" ry="18"/>
<text text-anchor="middle" x="297.03" y="-229.8" font-family="Times,serif" font-size="14.00">4</text>
</g>
<!-- l2012&#45;&gt;2746030262 -->
<g id="edge51" class="edge">
<title>l2012&#45;&gt;2746030262</title>
<path fill="none" stroke="lightgray" d="M369.03,-305C369.03,-280.95 348.13,-262.49 328.84,-250.58"/>
<polygon fill="lightgray" stroke="lightgray" points="330.76,-247.65 320.34,-245.71 327.28,-253.72 330.76,-247.65"/>
</g>
<!-- l2012&#45;&gt;2919327208 -->
<g id="edge53" class="edge">
<title>l2012&#45;&gt;2919327208</title>
<path fill="none" stroke="lightgray" stroke-width="2" d="M369.03,-305C369.03,-276.52 393.85,-278.19 405.03,-252 413.05,-233.22 417.82,-210.71 420.57,-193.03"/>
<polygon fill="lightgray" stroke="lightgray" stroke-width="2" points="424.01,-193.71 421.92,-183.32 417.08,-192.75 424.01,-193.71"/>
</g>
<!-- 2964336877 -->
<g id="node44" class="node">
<title>2964336877</title>
<ellipse fill="none" stroke="black" cx="369.03" cy="-234" rx="27" ry="18"/>
<text text-anchor="middle" x="369.03" y="-229.8" font-family="Times,serif" font-size="14.00">1</text>
</g>
<!-- l2012&#45;&gt;2964336877 -->
<g id="edge52" class="edge">
<title>l2012&#45;&gt;2964336877</title>
<path fill="none" stroke="lightgray" d="M369.03,-305C369.03,-291.37 369.03,-276.25 369.03,-263.56"/>
<polygon fill="lightgray" stroke="lightgray" points="372.53,-263.77 369.03,-253.77 365.53,-263.77 372.53,-263.77"/>
</g>
<!-- 2969121313 -->
<g id="node45" class="node">
<title>2969121313</title>
<ellipse fill="none" stroke="black" cx="629.03" cy="-162" rx="27" ry="18"/>
<text text-anchor="middle" x="629.03" y="-157.8" font-family="Times,serif" font-size="14.00">13</text>
</g>
<!-- l2012&#45;&gt;2969121313 -->
<g id="edge59" class="edge">
<title>l2012&#45;&gt;2969121313</title>
<path fill="none" stroke="lightgray" stroke-width="2" d="M371.03,-449C375.47,-438.58 380.63,-438.32 390.03,-432 390.85,-431.45 645.68,-307.93 646.03,-307"/>
<path fill="none" stroke="lightgray" stroke-width="2" d="M646.03,-305C661.62,-267.91 650.67,-220.89 640.53,-191.36"/>
<polygon fill="lightgray" stroke="lightgray" stroke-width="2" points="643.94,-190.52 637.21,-182.34 637.37,-192.93 643.94,-190.52"/>
</g>
<!-- 3008702223 -->
<g id="node46" class="node">
<title>3008702223</title>
<ellipse fill="none" stroke="black" cx="684.03" cy="-90" rx="27" ry="18"/>
<text text-anchor="middle" x="684.03" y="-85.8" font-family="Times,serif" font-size="14.00">2</text>
</g>
<!-- l2012&#45;&gt;3008702223 -->
<g id="edge60" class="edge">
<title>l2012&#45;&gt;3008702223</title>
<path fill="none" stroke="lightgray" stroke-width="2" d="M371.03,-449C380.04,-425.65 356.32,-420.65 352.03,-396 349.29,-380.24 349.56,-375.81 352.03,-360 355.86,-335.56 369.5,-331.73 369.03,-307"/>
<path fill="none" stroke="lightgray" stroke-width="2" d="M369.03,-305C361.84,-252.02 289.31,-297.38 261.03,-252 252.57,-238.42 252.98,-229.82 261.03,-216 293.7,-159.94 327,-166.03 388.03,-144 476.23,-112.16 586.36,-98.91 644.24,-93.84"/>
<polygon fill="lightgray" stroke="lightgray" stroke-width="2" points="644.43,-97.33 654.1,-93.02 643.85,-90.36 644.43,-97.33"/>
</g>
<!-- l2014 -->
<g id="node8" class="node">
<title>l2014</title>
<ellipse fill="lightblue" stroke="lightblue" cx="33.03" cy="-450" rx="33.03" ry="18"/>
<text text-anchor="middle" x="33.03" y="-445.8" font-family="Times,serif" font-size="14.00">l2014</text>
</g>
<!-- l2013&#45;&gt;l2014 -->
<g id="edge7" class="edge">
<title>l2013&#45;&gt;l2014</title>
<path fill="none" stroke="black" d="M33.03,-503.7C33.03,-496.41 33.03,-487.73 33.03,-479.54"/>
<polygon fill="black" stroke="black" points="36.53,-479.62 33.03,-469.62 29.53,-479.62 36.53,-479.62"/>
</g>
<!-- l2015 -->
<g id="node9" class="node">
<title>l2015</title>
<ellipse fill="lightblue" stroke="lightblue" cx="33.03" cy="-378" rx="33.03" ry="18"/>
<text text-anchor="middle" x="33.03" y="-373.8" font-family="Times,serif" font-size="14.00">l2015</text>
</g>
<!-- l2014&#45;&gt;l2015 -->
<g id="edge8" class="edge">
<title>l2014&#45;&gt;l2015</title>
<path fill="none" stroke="black" d="M33.03,-431.7C33.03,-424.41 33.03,-415.73 33.03,-407.54"/>
<polygon fill="black" stroke="black" points="36.53,-407.62 33.03,-397.62 29.53,-407.62 36.53,-407.62"/>
</g>
<!-- 2074407292 -->
<g id="node22" class="node">
<title>2074407292</title>
<ellipse fill="none" stroke="black" cx="1124.03" cy="-450" rx="27" ry="18"/>
<text text-anchor="middle" x="1124.03" y="-445.8" font-family="Times,serif" font-size="14.00">33</text>
</g>
<!-- l2014&#45;&gt;2074407292 -->
<g id="edge56" class="edge">
<title>l2014&#45;&gt;2074407292</title>
<path fill="none" stroke="lightgray" d="M65.09,-454.63C124.35,-462.92 255.13,-480.02 366.03,-486 445.14,-490.26 1004.28,-512.22 1079.03,-486 1087.08,-483.18 1094.76,-478.24 1101.42,-472.91"/>
<polygon fill="lightgray" stroke="lightgray" points="1103.46,-475.78 1108.68,-466.56 1098.85,-470.52 1103.46,-475.78"/>
</g>
<!-- 2217229052 -->
<g id="node26" class="node">
<title>2217229052</title>
<ellipse fill="none" stroke="black" cx="111.03" cy="-378" rx="27" ry="18"/>
<text text-anchor="middle" x="111.03" y="-373.8" font-family="Times,serif" font-size="14.00">7</text>
</g>
<!-- l2014&#45;&gt;2217229052 -->
<g id="edge46" class="edge">
<title>l2014&#45;&gt;2217229052</title>
<path fill="none" stroke="lightgray" d="M49.58,-434.15C60.44,-424.4 74.84,-411.48 86.97,-400.6"/>
<polygon fill="lightgray" stroke="lightgray" points="89.08,-403.4 94.19,-394.12 84.41,-398.19 89.08,-403.4"/>
</g>
<!-- l2014&#45;&gt;2221768484 -->
<g id="edge47" class="edge">
<title>l2014&#45;&gt;2221768484</title>
<path fill="none" stroke="lightgray" d="M60.15,-439.41C95.62,-426.87 157.81,-404.89 196.59,-391.18"/>
<polygon fill="lightgray" stroke="lightgray" points="197.65,-394.52 205.91,-387.88 195.31,-387.92 197.65,-394.52"/>
</g>
<!-- 2293704766 -->
<g id="node28" class="node">
<title>2293704766</title>
<ellipse fill="none" stroke="black" cx="388.03" cy="-378" rx="27" ry="18"/>
<text text-anchor="middle" x="388.03" y="-373.8" font-family="Times,serif" font-size="14.00">2</text>
</g>
<!-- l2014&#45;&gt;2293704766 -->
<g id="edge80" class="edge">
<title>l2014&#45;&gt;2293704766</title>
<path fill="none" stroke="lightgray" stroke-width="2" d="M63.92,-442.91C128.73,-430.13 278.81,-400.54 349.67,-386.57"/>
<polygon fill="lightgray" stroke="lightgray" stroke-width="2" points="350.23,-390.02 359.37,-384.65 348.88,-383.15 350.23,-390.02"/>
</g>
<!-- l2016 -->
<g id="node10" class="node">
<title>l2016</title>
<ellipse fill="lightblue" stroke="lightblue" cx="33.03" cy="-306" rx="33.03" ry="18"/>
<text text-anchor="middle" x="33.03" y="-301.8" font-family="Times,serif" font-size="14.00">l2016</text>
</g>
<!-- l2015&#45;&gt;l2016 -->
<g id="edge9" class="edge">
<title>l2015&#45;&gt;l2016</title>
<path fill="none" stroke="black" d="M33.03,-359.7C33.03,-352.41 33.03,-343.73 33.03,-335.54"/>
<polygon fill="black" stroke="black" points="36.53,-335.62 33.03,-325.62 29.53,-335.62 36.53,-335.62"/>
</g>
<!-- l2017 -->
<g id="node11" class="node">
<title>l2017</title>
<ellipse fill="lightblue" stroke="lightblue" cx="33.03" cy="-234" rx="33.03" ry="18"/>
<text text-anchor="middle" x="33.03" y="-229.8" font-family="Times,serif" font-size="14.00">l2017</text>
</g>
<!-- l2016&#45;&gt;l2017 -->
<g id="edge10" class="edge">
<title>l2016&#45;&gt;l2017</title>
<path fill="none" stroke="black" d="M33.03,-287.7C33.03,-280.41 33.03,-271.73 33.03,-263.54"/>
<polygon fill="black" stroke="black" points="36.53,-263.62 33.03,-253.62 29.53,-263.62 36.53,-263.62"/>
</g>
<!-- 2549265357 -->
<g id="node30" class="node">
<title>2549265357</title>
<ellipse fill="none" stroke="black" cx="111.03" cy="-306" rx="27" ry="18"/>
<text text-anchor="middle" x="111.03" y="-301.8" font-family="Times,serif" font-size="14.00">6</text>
</g>
<!-- l2016&#45;&gt;2549265357 -->
<g id="edge72" class="edge">
<title>l2016&#45;&gt;2549265357</title>
<path fill="none" stroke="lightgray" d="M66.55,-306C68.41,-306 70.27,-306 72.14,-306"/>
<polygon fill="lightgray" stroke="lightgray" points="72.06,-309.5 82.06,-306 72.06,-302.5 72.06,-309.5"/>
</g>
<!-- 2756042034 -->
<g id="node36" class="node">
<title>2756042034</title>
<ellipse fill="none" stroke="black" cx="149.03" cy="-234" rx="27" ry="18"/>
<text text-anchor="middle" x="149.03" y="-229.8" font-family="Times,serif" font-size="14.00">0</text>
</g>
<!-- l2016&#45;&gt;2756042034 -->
<g id="edge71" class="edge">
<title>l2016&#45;&gt;2756042034</title>
<path fill="none" stroke="lightgray" stroke-width="2" d="M54.58,-292C72.55,-281.16 98.36,-265.58 118.46,-253.45"/>
<polygon fill="lightgray" stroke="lightgray" stroke-width="2" points="120.19,-256.5 126.94,-248.33 116.57,-250.5 120.19,-256.5"/>
</g>
<!-- 2787099913 -->
<g id="node37" class="node">
<title>2787099913</title>
<ellipse fill="none" stroke="black" cx="149.03" cy="-162" rx="27" ry="18"/>
<text text-anchor="middle" x="149.03" y="-157.8" font-family="Times,serif" font-size="14.00">3</text>
</g>
<!-- l2016&#45;&gt;2787099913 -->
<g id="edge57" class="edge">
<title>l2016&#45;&gt;2787099913</title>
<path fill="none" stroke="lightgray" d="M58.69,-294.29C64.06,-292.14 69.71,-289.94 75.03,-288 133.25,-266.72 165.82,-283.81 204.03,-235"/>
<path fill="none" stroke="lightgray" d="M204.03,-233C217.95,-215.22 198.07,-194.94 178.44,-180.8"/>
<polygon fill="lightgray" stroke="lightgray" points="180.46,-177.94 170.22,-175.24 176.54,-183.74 180.46,-177.94"/>
</g>
<!-- 2942393843 -->
<g id="node40" class="node">
<title>2942393843</title>
<ellipse fill="none" stroke="black" cx="925.03" cy="-90" rx="27" ry="18"/>
<text text-anchor="middle" x="925.03" y="-85.8" font-family="Times,serif" font-size="14.00">5</text>
</g>
<!-- l2016&#45;&gt;2942393843 -->
<g id="edge50" class="edge">
<title>l2016&#45;&gt;2942393843</title>
<path fill="none" stroke="lightgray" d="M204.03,-233C260.03,-161.47 300.59,-168.62 388.03,-144 412.06,-137.23 768.45,-104.98 887,-94.38"/>
<polygon fill="lightgray" stroke="lightgray" points="887.2,-97.88 896.84,-93.51 886.57,-90.91 887.2,-97.88"/>
</g>
<!-- 2951728686 -->
<g id="node41" class="node">
<title>2951728686</title>
<ellipse fill="none" stroke="black" cx="221.03" cy="-162" rx="27" ry="18"/>
<text text-anchor="middle" x="221.03" y="-157.8" font-family="Times,serif" font-size="14.00">0</text>
</g>
<!-- l2016&#45;&gt;2951728686 -->
<g id="edge58" class="edge">
<title>l2016&#45;&gt;2951728686</title>
<path fill="none" stroke="lightgray" d="M204.03,-233C213.22,-221.27 217.53,-205.3 219.53,-191.58"/>
<polygon fill="lightgray" stroke="lightgray" points="222.99,-192.08 220.58,-181.77 216.03,-191.33 222.99,-192.08"/>
</g>
<!-- l2016&#45;&gt;3008702223 -->
<g id="edge70" class="edge">
<title>l2016&#45;&gt;3008702223</title>
<path fill="none" stroke="lightgray" d="M47.38,-289.75C56.28,-279.65 67.43,-265.77 75.03,-252 99.62,-207.45 72.91,-175.3 113.03,-144 154.96,-111.29 524.56,-96.27 645.74,-92.19"/>
<polygon fill="lightgray" stroke="lightgray" points="645.61,-95.69 655.49,-91.87 645.38,-88.7 645.61,-95.69"/>
</g>
<!-- l2018 -->
<g id="node12" class="node">
<title>l2018</title>
<ellipse fill="lightblue" stroke="lightblue" cx="33.03" cy="-162" rx="33.03" ry="18"/>
<text text-anchor="middle" x="33.03" y="-157.8" font-family="Times,serif" font-size="14.00">l2018</text>
</g>
<!-- l2017&#45;&gt;l2018 -->
<g id="edge11" class="edge">
<title>l2017&#45;&gt;l2018</title>
<path fill="none" stroke="black" d="M33.03,-215.7C33.03,-208.41 33.03,-199.73 33.03,-191.54"/>
<polygon fill="black" stroke="black" points="36.53,-191.62 33.03,-181.62 29.53,-191.62 36.53,-191.62"/>
</g>
<!-- l2019 -->
<g id="node13" class="node">
<title>l2019</title>
<ellipse fill="lightblue" stroke="lightblue" cx="33.03" cy="-90" rx="33.03" ry="18"/>
<text text-anchor="middle" x="33.03" y="-85.8" font-family="Times,serif" font-size="14.00">l2019</text>
</g>
<!-- l2018&#45;&gt;l2019 -->
<g id="edge12" class="edge">
<title>l2018&#45;&gt;l2019</title>
<path fill="none" stroke="black" d="M33.03,-143.7C33.03,-136.41 33.03,-127.73 33.03,-119.54"/>
<polygon fill="black" stroke="black" points="36.53,-119.62 33.03,-109.62 29.53,-119.62 36.53,-119.62"/>
</g>
<!-- l2020 -->
<g id="node14" class="node">
<title>l2020</title>
<ellipse fill="lightblue" stroke="lightblue" cx="33.03" cy="-18" rx="33.03" ry="18"/>
<text text-anchor="middle" x="33.03" y="-13.8" font-family="Times,serif" font-size="14.00">l2020</text>
</g>
<!-- l2019&#45;&gt;l2020 -->
<g id="edge13" class="edge">
<title>l2019&#45;&gt;l2020</title>
<path fill="none" stroke="black" d="M33.03,-71.7C33.03,-64.41 33.03,-55.73 33.03,-47.54"/>
<polygon fill="black" stroke="black" points="36.53,-47.62 33.03,-37.62 29.53,-47.62 36.53,-47.62"/>
</g>
<!-- 1256453626 -->
<g id="node15" class="node">
<title>1256453626</title>
<ellipse fill="none" stroke="black" cx="646.03" cy="-378" rx="27" ry="18"/>
<text text-anchor="middle" x="646.03" y="-373.8" font-family="Times,serif" font-size="14.00">4</text>
</g>
<!-- 1256453626&#45;&gt;2969121313 -->
<g id="edge24" class="edge">
<title>1256453626&#45;&gt;2969121313</title>
<path fill="none" stroke="black" d="M642.72,-359.71C640.7,-345.15 639.59,-324.05 646.03,-307"/>
</g>
<!-- 2010627475 -->
<g id="node17" class="node">
<title>2010627475</title>
<ellipse fill="none" stroke="black" cx="667.03" cy="-522" rx="27" ry="18"/>
<text text-anchor="middle" x="667.03" y="-517.8" font-family="Times,serif" font-size="14.00">20</text>
</g>
<!-- r2019 -->
<g id="node61" class="node">
<title>r2019</title>
<ellipse fill="lightgrey" stroke="lightgrey" cx="1241.03" cy="-90" rx="33.57" ry="18"/>
<text text-anchor="middle" x="1241.03" y="-85.8" font-family="Times,serif" font-size="14.00">r2019</text>
</g>
<!-- 2010627475&#45;&gt;r2019 -->
<g id="edge79" class="edge">
<title>2010627475&#45;&gt;r2019</title>
<path fill="none" stroke="lightgray" d="M666.47,-503.52C666.45,-474.33 670.54,-415.29 701.03,-379"/>
</g>
<!-- 2011037557 -->
<g id="node18" class="node">
<title>2011037557</title>
<ellipse fill="none" stroke="black" cx="904.03" cy="-378" rx="27" ry="18"/>
<text text-anchor="middle" x="904.03" y="-373.8" font-family="Times,serif" font-size="14.00">0</text>
</g>
<!-- 2033389579 -->
<g id="node19" class="node">
<title>2033389579</title>
<ellipse fill="none" stroke="black" cx="1052.03" cy="-450" rx="27" ry="18"/>
<text text-anchor="middle" x="1052.03" y="-445.8" font-family="Times,serif" font-size="14.00">100</text>
</g>
<!-- 2033389579&#45;&gt;2942393843 -->
<g id="edge25" class="edge">
<title>2033389579&#45;&gt;2942393843</title>
<path fill="none" stroke="black" d="M1041.7,-433.16C1025.64,-407.7 994.98,-355.61 980.03,-307"/>
<path fill="none" stroke="black" d="M980.03,-305C954.94,-242.14 899.57,-225.71 925.03,-163"/>
</g>
<!-- r2015 -->
<g id="node57" class="node">
<title>r2015</title>
<ellipse fill="lightgrey" stroke="lightgrey" cx="1241.03" cy="-378" rx="33.57" ry="18"/>
<text text-anchor="middle" x="1241.03" y="-373.8" font-family="Times,serif" font-size="14.00">r2015</text>
</g>
<!-- 2033389579&#45;&gt;r2015 -->
<g id="edge62" class="edge">
<title>2033389579&#45;&gt;r2015</title>
<path fill="none" stroke="lightgray" stroke-width="5" d="M1073.18,-438.55C1078.02,-436.29 1083.17,-433.98 1088.03,-432 1124.22,-417.24 1166.22,-402.88 1197.05,-392.84"/>
<polygon fill="lightgray" stroke="lightgray" stroke-width="5" points="1198.38,-397.01 1206.56,-389.78 1195.7,-388.68 1198.38,-397.01"/>
</g>
<!-- r2017 -->
<g id="node59" class="node">
<title>r2017</title>
<ellipse fill="lightgrey" stroke="lightgrey" cx="1241.03" cy="-234" rx="33.57" ry="18"/>
<text text-anchor="middle" x="1241.03" y="-229.8" font-family="Times,serif" font-size="14.00">r2017</text>
</g>
<!-- 2033389579&#45;&gt;r2017 -->
<g id="edge75" class="edge">
<title>2033389579&#45;&gt;r2017</title>
<path fill="none" stroke="lightgray" d="M1072.47,-438.09C1091.43,-426.45 1117.66,-405.98 1124.03,-379"/>
<path fill="none" stroke="lightgray" d="M1124.03,-377C1136.27,-325.16 1182.21,-280.61 1212.75,-255.84"/>
<polygon fill="lightgray" stroke="lightgray" points="1214.8,-258.68 1220.49,-249.74 1210.47,-253.18 1214.8,-258.68"/>
</g>
<!-- 2033389579&#45;&gt;r2019 -->
<g id="edge68" class="edge">
<title>2033389579&#45;&gt;r2019</title>
<path fill="none" stroke="lightgray" stroke-width="5" d="M980.03,-305C969.4,-275.76 957.04,-255.95 980.03,-235"/>
</g>
<!-- 2064444594 -->
<g id="node20" class="node">
<title>2064444594</title>
<ellipse fill="none" stroke="black" cx="1090.03" cy="-522" rx="27" ry="18"/>
<text text-anchor="middle" x="1090.03" y="-517.8" font-family="Times,serif" font-size="14.00">9</text>
</g>
<!-- 2092272247 -->
<g id="node24" class="node">
<title>2092272247</title>
<ellipse fill="none" stroke="black" cx="1162.03" cy="-522" rx="27" ry="18"/>
<text text-anchor="middle" x="1162.03" y="-517.8" font-family="Times,serif" font-size="14.00">4</text>
</g>
<!-- 2064444594&#45;&gt;2092272247 -->
<g id="edge27" class="edge">
<title>2064444594&#45;&gt;2092272247</title>
<path fill="none" stroke="black" d="M1117.31,-522C1119.32,-522 1121.32,-522 1123.32,-522"/>
<polygon fill="black" stroke="black" points="1123.27,-525.5 1133.27,-522 1123.27,-518.5 1123.27,-525.5"/>
</g>
<!-- 2070151446 -->
<g id="node21" class="node">
<title>2070151446</title>
<ellipse fill="none" stroke="black" cx="794.03" cy="-450" rx="27" ry="18"/>
<text text-anchor="middle" x="794.03" y="-445.8" font-family="Times,serif" font-size="14.00">12</text>
</g>
<!-- 2070151446&#45;&gt;2011037557 -->
<g id="edge30" class="edge">
<title>2070151446&#45;&gt;2011037557</title>
<path fill="none" stroke="black" d="M813.19,-436.81C830.39,-425.87 855.86,-409.66 875.45,-397.19"/>
<polygon fill="black" stroke="black" points="877.26,-400.19 883.82,-391.87 873.5,-394.28 877.26,-400.19"/>
</g>
<!-- 2578585522 -->
<g id="node32" class="node">
<title>2578585522</title>
<ellipse fill="none" stroke="black" cx="925.03" cy="-306" rx="27" ry="18"/>
<text text-anchor="middle" x="925.03" y="-301.8" font-family="Times,serif" font-size="14.00">2</text>
</g>
<!-- 2070151446&#45;&gt;2578585522 -->
<g id="edge28" class="edge">
<title>2070151446&#45;&gt;2578585522</title>
<path fill="none" stroke="black" d="M806.03,-433.37C820.21,-415.19 844.83,-384.52 868.03,-360 878.23,-349.22 890.17,-337.93 900.48,-328.56"/>
<polygon fill="black" stroke="black" points="902.81,-331.17 907.91,-321.89 898.13,-325.97 902.81,-331.17"/>
</g>
<!-- 2619011320 -->
<g id="node34" class="node">
<title>2619011320</title>
<ellipse fill="none" stroke="black" cx="870.03" cy="-234" rx="27" ry="18"/>
<text text-anchor="middle" x="870.03" y="-229.8" font-family="Times,serif" font-size="14.00">7</text>
</g>
<!-- 2070151446&#45;&gt;2619011320 -->
<g id="edge29" class="edge">
<title>2070151446&#45;&gt;2619011320</title>
<path fill="none" stroke="black" d="M774.5,-437.37C756.09,-424.73 732.27,-403.11 739.03,-379"/>
</g>
<!-- 2074407292&#45;&gt;r2015 -->
<g id="edge78" class="edge">
<title>2074407292&#45;&gt;r2015</title>
<path fill="none" stroke="lightgray" d="M1143.62,-437.28C1161.62,-426.51 1188.62,-410.36 1209.63,-397.79"/>
<polygon fill="lightgray" stroke="lightgray" points="1211.31,-400.86 1218.1,-392.72 1207.72,-394.85 1211.31,-400.86"/>
</g>
<!-- 2074407292&#45;&gt;r2017 -->
<g id="edge77" class="edge">
<title>2074407292&#45;&gt;r2017</title>
<path fill="none" stroke="lightgray" d="M1121.85,-431.77C1120.56,-417.45 1119.87,-396.62 1124.03,-379"/>
</g>
<!-- 2078106834 -->
<g id="node23" class="node">
<title>2078106834</title>
<ellipse fill="none" stroke="black" cx="739.03" cy="-522" rx="27" ry="18"/>
<text text-anchor="middle" x="739.03" y="-517.8" font-family="Times,serif" font-size="14.00">28</text>
</g>
<!-- 2078106834&#45;&gt;2011037557 -->
<g id="edge23" class="edge">
<title>2078106834&#45;&gt;2011037557</title>
<path fill="none" stroke="black" d="M766.24,-521.28C813.8,-520.15 911.53,-510.26 959.03,-451"/>
<path fill="none" stroke="black" d="M959.03,-449C973.16,-431.38 953.25,-411.08 933.55,-396.89"/>
<polygon fill="black" stroke="black" points="935.54,-394.01 925.3,-391.3 931.62,-399.81 935.54,-394.01"/>
</g>
<!-- 2078106834&#45;&gt;2293704766 -->
<g id="edge22" class="edge">
<title>2078106834&#45;&gt;2293704766</title>
<path fill="none" stroke="black" d="M717.81,-510.71C712.98,-508.44 707.85,-506.09 703.03,-504 601.84,-460.08 479.9,-413.44 421.89,-391.63"/>
<polygon fill="black" stroke="black" points="423.17,-388.37 412.58,-388.13 420.71,-394.92 423.17,-388.37"/>
</g>
<!-- 2078106834&#45;&gt;2536716774 -->
<g id="edge19" class="edge">
<title>2078106834&#45;&gt;2536716774</title>
<path fill="none" stroke="black" d="M959.03,-449C988.16,-413.5 1019.94,-422.37 1035.03,-379"/>
<path fill="none" stroke="black" d="M1035.03,-377C1039.62,-363.82 1040.09,-348.38 1039.22,-335.35"/>
<polygon fill="black" stroke="black" points="1042.73,-335.32 1038.26,-325.72 1035.76,-336.01 1042.73,-335.32"/>
</g>
<!-- 2078106834&#45;&gt;2578585522 -->
<g id="edge20" class="edge">
<title>2078106834&#45;&gt;2578585522</title>
<path fill="none" stroke="black" d="M959.03,-449C986.24,-415.06 961.7,-362.82 942.55,-332.06"/>
<polygon fill="black" stroke="black" points="945.56,-330.26 937.18,-323.78 939.69,-334.07 945.56,-330.26"/>
</g>
<!-- 2078106834&#45;&gt;2619011320 -->
<g id="edge21" class="edge">
<title>2078106834&#45;&gt;2619011320</title>
<path fill="none" stroke="black" d="M736.13,-503.99C732.14,-476.92 726.78,-422.67 739.03,-379"/>
<path fill="none" stroke="black" d="M739.03,-377C742.36,-366.17 749.2,-367.1 758.03,-360 779.38,-342.85 788.82,-343.51 808.03,-324 826.76,-304.98 843.76,-279.74 855.2,-260.99"/>
<polygon fill="black" stroke="black" points="858.07,-263.01 860.18,-252.63 852.06,-259.43 858.07,-263.01"/>
</g>
<!-- 2092272247&#45;&gt;l2012 -->
<!-- 2164053284 -->
<g id="node25" class="node">
<title>2164053284</title>
<ellipse fill="none" stroke="black" cx="1035.03" cy="-594" rx="27" ry="18"/>
<text text-anchor="middle" x="1035.03" y="-589.8" font-family="Times,serif" font-size="14.00">22</text>
</g>
<!-- r2013 -->
<g id="node55" class="node">
<title>r2013</title>
<ellipse fill="lightgrey" stroke="lightgrey" cx="1241.03" cy="-522" rx="33.57" ry="18"/>
<text text-anchor="middle" x="1241.03" y="-517.8" font-family="Times,serif" font-size="14.00">r2013</text>
</g>
<!-- 2164053284&#45;&gt;r2013 -->
<g id="edge63" class="edge">
<title>2164053284&#45;&gt;r2013</title>
<path fill="none" stroke="lightgray" d="M1059.5,-585.57C1091.52,-575.72 1149.31,-557.53 1198.03,-540 1200.07,-539.27 1202.16,-538.5 1204.26,-537.71"/>
<polygon fill="lightgray" stroke="lightgray" points="1205.26,-541.08 1213.34,-534.23 1202.75,-534.54 1205.26,-541.08"/>
</g>
<!-- 2164053284&#45;&gt;r2015 -->
<g id="edge61" class="edge">
<title>2164053284&#45;&gt;r2015</title>
<path fill="none" stroke="lightgray" stroke-width="2" d="M1033.97,-575.71C1033.72,-555.97 1036.39,-523.83 1054.03,-504 1087.1,-466.82 1118.41,-495.26 1160.03,-468 1173.75,-459.02 1201.1,-427.59 1220.2,-404.62"/>
<polygon fill="lightgray" stroke="lightgray" stroke-width="2" points="1222.74,-407.05 1226.4,-397.11 1217.33,-402.6 1222.74,-407.05"/>
</g>
<!-- 2536716774&#45;&gt;r2017 -->
<g id="edge73" class="edge">
<title>2536716774&#45;&gt;r2017</title>
<path fill="none" stroke="lightgray" d="M1058.66,-296.97C1093.78,-285.04 1160.14,-262.49 1202.39,-248.13"/>
<polygon fill="lightgray" stroke="lightgray" points="1203.32,-251.51 1211.66,-244.98 1201.07,-244.88 1203.32,-251.51"/>
</g>
<!-- 2578023882 -->
<g id="node31" class="node">
<title>2578023882</title>
<ellipse fill="none" stroke="black" cx="739.03" cy="-306" rx="27" ry="18"/>
<text text-anchor="middle" x="739.03" y="-301.8" font-family="Times,serif" font-size="14.00">6</text>
</g>
<!-- 2578023882&#45;&gt;2942393843 -->
<g id="edge31" class="edge">
<title>2578023882&#45;&gt;2942393843</title>
<path fill="none" stroke="black" d="M746.92,-288.46C757.01,-268.82 776.2,-236.21 801.03,-216 847.52,-178.17 901.72,-218.21 925.03,-163"/>
<path fill="none" stroke="black" d="M925.03,-161C930.32,-147.98 930.83,-132.45 929.8,-119.32"/>
<polygon fill="black" stroke="black" points="933.3,-119.13 928.69,-109.59 926.35,-119.92 933.3,-119.13"/>
</g>
<!-- 2578585522&#45;&gt;r2017 -->
<g id="edge66" class="edge">
<title>2578585522&#45;&gt;r2017</title>
<path fill="none" stroke="lightgray" d="M946.86,-294.99C952.98,-292.45 959.69,-289.91 966.03,-288 1045.86,-264.03 1142.09,-248.4 1196.96,-240.68"/>
<polygon fill="lightgray" stroke="lightgray" points="1197.42,-244.15 1206.84,-239.32 1196.46,-237.22 1197.42,-244.15"/>
</g>
<!-- 2896997271 -->
<g id="node38" class="node">
<title>2896997271</title>
<ellipse fill="none" stroke="black" cx="1018.03" cy="-162" rx="27" ry="18"/>
<text text-anchor="middle" x="1018.03" y="-157.8" font-family="Times,serif" font-size="14.00">20</text>
</g>
<!-- 2896997271&#45;&gt;r2019 -->
<g id="edge74" class="edge">
<title>2896997271&#45;&gt;r2019</title>
<path fill="none" stroke="lightgray" d="M1039.99,-151.38C1046.1,-148.84 1052.78,-146.2 1059.03,-144 1106.86,-127.18 1163.04,-111.41 1200.19,-101.52"/>
<polygon fill="lightgray" stroke="lightgray" points="1200.85,-104.96 1209.62,-99.03 1199.06,-98.2 1200.85,-104.96"/>
</g>
<!-- 2963233535 -->
<g id="node42" class="node">
<title>2963233535</title>
<ellipse fill="none" stroke="black" cx="595.03" cy="-522" rx="27" ry="18"/>
<text text-anchor="middle" x="595.03" y="-517.8" font-family="Times,serif" font-size="14.00">13</text>
</g>
<!-- 2963233535&#45;&gt;r2019 -->
<g id="edge81" class="edge">
<title>2963233535&#45;&gt;r2019</title>
<path fill="none" stroke="lightgray" stroke-width="2" d="M604.95,-505.03C622.41,-477.57 660.64,-420.39 701.03,-379"/>
<path fill="none" stroke="lightgray" stroke-width="2" d="M701.03,-377C728.17,-347 748.22,-354.29 775.03,-324 811.29,-283.05 792.22,-251.26 834.03,-216 871.75,-184.2 896.07,-204.24 939.03,-180 960.74,-167.75 959.58,-154.83 982.03,-144 1051.39,-110.54 1141.09,-98.18 1194.67,-93.62"/>
<polygon fill="lightgray" stroke="lightgray" stroke-width="2" points="1194.76,-97.13 1204.46,-92.86 1194.22,-90.15 1194.76,-97.13"/>
</g>
<!-- 633744573 -->
<g id="node47" class="node">
<title>633744573</title>
<ellipse fill="none" stroke="black" cx="794.03" cy="-378" rx="27" ry="18"/>
<text text-anchor="middle" x="794.03" y="-373.8" font-family="Times,serif" font-size="14.00">58</text>
</g>
<!-- 633744573&#45;&gt;2011037557 -->
<g id="edge18" class="edge">
<title>633744573&#45;&gt;2011037557</title>
<path fill="none" stroke="black" d="M821.1,-378C835.9,-378 850.7,-378 865.5,-378"/>
<polygon fill="black" stroke="black" points="865.31,-381.5 875.31,-378 865.31,-374.5 865.31,-381.5"/>
</g>
<!-- 633744573&#45;&gt;2578585522 -->
<g id="edge15" class="edge">
<title>633744573&#45;&gt;2578585522</title>
<path fill="none" stroke="black" d="M814.79,-365.91C836.25,-354.44 870,-336.41 894.5,-323.32"/>
<polygon fill="black" stroke="black" points="895.87,-326.55 903.04,-318.75 892.57,-320.38 895.87,-326.55"/>
</g>
<!-- 633744573&#45;&gt;2619011320 -->
<g id="edge16" class="edge">
<title>633744573&#45;&gt;2619011320</title>
<path fill="none" stroke="black" d="M807.48,-362.16C821.87,-346.91 845.89,-323.17 870.03,-307"/>
<path fill="none" stroke="black" d="M870.03,-305C883.2,-296.18 882.95,-278.19 879.54,-262.66"/>
<polygon fill="black" stroke="black" points="883.03,-262.15 877.04,-253.41 876.27,-263.98 883.03,-262.15"/>
</g>
<!-- 633744573&#45;&gt;2969121313 -->
<g id="edge14" class="edge">
<title>633744573&#45;&gt;2969121313</title>
<path fill="none" stroke="black" d="M770.07,-369.32C749.13,-361.35 719.55,-346.8 703.03,-324 679.31,-291.24 691.37,-274.78 684.03,-235"/>
<path fill="none" stroke="black" d="M684.03,-233C679.1,-214.3 665.84,-197.16 653.59,-184.52"/>
<polygon fill="black" stroke="black" points="656.07,-182.05 646.46,-177.58 651.18,-187.06 656.07,-182.05"/>
</g>
<!-- 633744573&#45;&gt;3008702223 -->
<g id="edge17" class="edge">
<title>633744573&#45;&gt;3008702223</title>
<path fill="none" stroke="black" d="M684.03,-233C673.9,-194.62 676.51,-148.35 679.85,-119.3"/>
<polygon fill="black" stroke="black" points="683.31,-119.83 681.09,-109.47 676.36,-118.95 683.31,-119.83"/>
</g>
<!-- 633744573&#45;&gt;r2015 -->
<g id="edge64" class="edge">
<title>633744573&#45;&gt;r2015</title>
<path fill="none" stroke="lightgray" stroke-width="2" d="M814.74,-389.83C831.07,-398.44 854.73,-409.37 877.03,-414 986.7,-436.76 1018.38,-431.35 1129.03,-414 1154.05,-410.08 1181.1,-401.51 1202.35,-393.72"/>
<polygon fill="lightgray" stroke="lightgray" stroke-width="2" points="1203.5,-397.03 1211.62,-390.21 1201.03,-390.48 1203.5,-397.03"/>
</g>
<!-- 633744573&#45;&gt;r2017 -->
<g id="edge65" class="edge">
<title>633744573&#45;&gt;r2017</title>
<path fill="none" stroke="lightgray" stroke-width="3" d="M870.03,-305C879.45,-298.69 878.78,-292.82 889.03,-288 942.13,-263.02 1110.13,-245.94 1193.36,-238.78"/>
<polygon fill="lightgray" stroke="lightgray" stroke-width="3" points="1193.43,-242.29 1203.1,-237.96 1192.84,-235.31 1193.43,-242.29"/>
</g>
<!-- 633744573&#45;&gt;r2019 -->
<g id="edge67" class="edge">
<title>633744573&#45;&gt;r2019</title>
<path fill="none" stroke="lightgray" d="M870.03,-305C879.45,-298.69 879.87,-294.66 889.03,-288 926.89,-260.48 947.05,-268.2 980.03,-235"/>
<path fill="none" stroke="lightgray" d="M980.03,-233C1014.75,-198.06 1142.89,-136.24 1205.77,-107.08"/>
<polygon fill="lightgray" stroke="lightgray" points="1207.01,-110.36 1214.62,-102.99 1204.07,-104 1207.01,-110.36"/>
</g>
<!-- 768653336 -->
<g id="node48" class="node">
<title>768653336</title>
<ellipse fill="none" stroke="black" cx="574.03" cy="-378" rx="27" ry="18"/>
<text text-anchor="middle" x="574.03" y="-373.8" font-family="Times,serif" font-size="14.00">13</text>
</g>
<!-- 768653336&#45;&gt;1256453626 -->
<g id="edge26" class="edge">
<title>768653336&#45;&gt;1256453626</title>
<path fill="none" stroke="black" d="M601.31,-378C603.32,-378 605.32,-378 607.32,-378"/>
<polygon fill="black" stroke="black" points="607.27,-381.5 617.27,-378 607.27,-374.5 607.27,-381.5"/>
</g>
<!-- r2007 -->
<g id="node49" class="node">
<title>r2007</title>
<ellipse fill="lightgrey" stroke="lightgrey" cx="1241.03" cy="-954" rx="33.57" ry="18"/>
<text text-anchor="middle" x="1241.03" y="-949.8" font-family="Times,serif" font-size="14.00">r2007</text>
</g>
<!-- r2008 -->
<g id="node50" class="node">
<title>r2008</title>
<ellipse fill="lightgrey" stroke="lightgrey" cx="1241.03" cy="-882" rx="33.57" ry="18"/>
<text text-anchor="middle" x="1241.03" y="-877.8" font-family="Times,serif" font-size="14.00">r2008</text>
</g>
<!-- r2007&#45;&gt;r2008 -->
<g id="edge32" class="edge">
<title>r2007&#45;&gt;r2008</title>
<path fill="none" stroke="black" d="M1241.03,-935.7C1241.03,-928.41 1241.03,-919.73 1241.03,-911.54"/>
<polygon fill="black" stroke="black" points="1244.53,-911.62 1241.03,-901.62 1237.53,-911.62 1244.53,-911.62"/>
</g>
<!-- r2009 -->
<g id="node51" class="node">
<title>r2009</title>
<ellipse fill="lightgrey" stroke="lightgrey" cx="1241.03" cy="-810" rx="33.57" ry="18"/>
<text text-anchor="middle" x="1241.03" y="-805.8" font-family="Times,serif" font-size="14.00">r2009</text>
</g>
<!-- r2008&#45;&gt;r2009 -->
<g id="edge33" class="edge">
<title>r2008&#45;&gt;r2009</title>
<path fill="none" stroke="black" d="M1241.03,-863.7C1241.03,-856.41 1241.03,-847.73 1241.03,-839.54"/>
<polygon fill="black" stroke="black" points="1244.53,-839.62 1241.03,-829.62 1237.53,-839.62 1244.53,-839.62"/>
</g>
<!-- r2010 -->
<g id="node52" class="node">
<title>r2010</title>
<ellipse fill="lightgrey" stroke="lightgrey" cx="1241.03" cy="-738" rx="33.57" ry="18"/>
<text text-anchor="middle" x="1241.03" y="-733.8" font-family="Times,serif" font-size="14.00">r2010</text>
</g>
<!-- r2009&#45;&gt;r2010 -->
<g id="edge34" class="edge">
<title>r2009&#45;&gt;r2010</title>
<path fill="none" stroke="black" d="M1241.03,-791.7C1241.03,-784.41 1241.03,-775.73 1241.03,-767.54"/>
<polygon fill="black" stroke="black" points="1244.53,-767.62 1241.03,-757.62 1237.53,-767.62 1244.53,-767.62"/>
</g>
<!-- r2011 -->
<g id="node53" class="node">
<title>r2011</title>
<ellipse fill="lightgrey" stroke="lightgrey" cx="1241.03" cy="-666" rx="33.57" ry="18"/>
<text text-anchor="middle" x="1241.03" y="-661.8" font-family="Times,serif" font-size="14.00">r2011</text>
</g>
<!-- r2010&#45;&gt;r2011 -->
<g id="edge35" class="edge">
<title>r2010&#45;&gt;r2011</title>
<path fill="none" stroke="black" d="M1241.03,-719.7C1241.03,-712.41 1241.03,-703.73 1241.03,-695.54"/>
<polygon fill="black" stroke="black" points="1244.53,-695.62 1241.03,-685.62 1237.53,-695.62 1244.53,-695.62"/>
</g>
<!-- r2012 -->
<g id="node54" class="node">
<title>r2012</title>
<ellipse fill="lightgrey" stroke="lightgrey" cx="1241.03" cy="-594" rx="33.57" ry="18"/>
<text text-anchor="middle" x="1241.03" y="-589.8" font-family="Times,serif" font-size="14.00">r2012</text>
</g>
<!-- r2011&#45;&gt;r2012 -->
<g id="edge36" class="edge">
<title>r2011&#45;&gt;r2012</title>
<path fill="none" stroke="black" d="M1241.03,-647.7C1241.03,-640.41 1241.03,-631.73 1241.03,-623.54"/>
<polygon fill="black" stroke="black" points="1244.53,-623.62 1241.03,-613.62 1237.53,-623.62 1244.53,-623.62"/>
</g>
<!-- r2012&#45;&gt;r2013 -->
<g id="edge37" class="edge">
<title>r2012&#45;&gt;r2013</title>
<path fill="none" stroke="black" d="M1241.03,-575.7C1241.03,-568.41 1241.03,-559.73 1241.03,-551.54"/>
<polygon fill="black" stroke="black" points="1244.53,-551.62 1241.03,-541.62 1237.53,-551.62 1244.53,-551.62"/>
</g>
<!-- r2014 -->
<g id="node56" class="node">
<title>r2014</title>
<ellipse fill="lightgrey" stroke="lightgrey" cx="1241.03" cy="-450" rx="33.57" ry="18"/>
<text text-anchor="middle" x="1241.03" y="-445.8" font-family="Times,serif" font-size="14.00">r2014</text>
</g>
<!-- r2013&#45;&gt;r2014 -->
<g id="edge38" class="edge">
<title>r2013&#45;&gt;r2014</title>
<path fill="none" stroke="black" d="M1241.03,-503.7C1241.03,-496.41 1241.03,-487.73 1241.03,-479.54"/>
<polygon fill="black" stroke="black" points="1244.53,-479.62 1241.03,-469.62 1237.53,-479.62 1244.53,-479.62"/>
</g>
<!-- r2014&#45;&gt;r2015 -->
<g id="edge39" class="edge">
<title>r2014&#45;&gt;r2015</title>
<path fill="none" stroke="black" d="M1241.03,-431.7C1241.03,-424.41 1241.03,-415.73 1241.03,-407.54"/>
<polygon fill="black" stroke="black" points="1244.53,-407.62 1241.03,-397.62 1237.53,-407.62 1244.53,-407.62"/>
</g>
<!-- r2016 -->
<g id="node58" class="node">
<title>r2016</title>
<ellipse fill="lightgrey" stroke="lightgrey" cx="1241.03" cy="-306" rx="33.57" ry="18"/>
<text text-anchor="middle" x="1241.03" y="-301.8" font-family="Times,serif" font-size="14.00">r2016</text>
</g>
<!-- r2015&#45;&gt;r2016 -->
<g id="edge40" class="edge">
<title>r2015&#45;&gt;r2016</title>
<path fill="none" stroke="black" d="M1241.03,-359.7C1241.03,-352.41 1241.03,-343.73 1241.03,-335.54"/>
<polygon fill="black" stroke="black" points="1244.53,-335.62 1241.03,-325.62 1237.53,-335.62 1244.53,-335.62"/>
</g>
<!-- r2016&#45;&gt;r2017 -->
<g id="edge41" class="edge">
<title>r2016&#45;&gt;r2017</title>
<path fill="none" stroke="black" d="M1241.03,-287.7C1241.03,-280.41 1241.03,-271.73 1241.03,-263.54"/>
<polygon fill="black" stroke="black" points="1244.53,-263.62 1241.03,-253.62 1237.53,-263.62 1244.53,-263.62"/>
</g>
<!-- r2018 -->
<g id="node60" class="node">
<title>r2018</title>
<ellipse fill="lightgrey" stroke="lightgrey" cx="1241.03" cy="-162" rx="33.57" ry="18"/>
<text text-anchor="middle" x="1241.03" y="-157.8" font-family="Times,serif" font-size="14.00">r2018</text>
</g>
<!-- r2017&#45;&gt;r2018 -->
<g id="edge42" class="edge">
<title>r2017&#45;&gt;r2018</title>
<path fill="none" stroke="black" d="M1241.03,-215.7C1241.03,-208.41 1241.03,-199.73 1241.03,-191.54"/>
<polygon fill="black" stroke="black" points="1244.53,-191.62 1241.03,-181.62 1237.53,-191.62 1244.53,-191.62"/>
</g>
<!-- r2018&#45;&gt;r2019 -->
<g id="edge43" class="edge">
<title>r2018&#45;&gt;r2019</title>
<path fill="none" stroke="black" d="M1241.03,-143.7C1241.03,-136.41 1241.03,-127.73 1241.03,-119.54"/>
<polygon fill="black" stroke="black" points="1244.53,-119.62 1241.03,-109.62 1237.53,-119.62 1244.53,-119.62"/>
</g>
<!-- r2020 -->
<g id="node62" class="node">
<title>r2020</title>
<ellipse fill="lightgrey" stroke="lightgrey" cx="1241.03" cy="-18" rx="33.57" ry="18"/>
<text text-anchor="middle" x="1241.03" y="-13.8" font-family="Times,serif" font-size="14.00">r2020</text>
</g>
<!-- r2019&#45;&gt;r2020 -->
<g id="edge44" class="edge">
<title>r2019&#45;&gt;r2020</title>
<path fill="none" stroke="black" d="M1241.03,-71.7C1241.03,-64.41 1241.03,-55.73 1241.03,-47.54"/>
<polygon fill="black" stroke="black" points="1244.53,-47.62 1241.03,-37.62 1237.53,-47.62 1244.53,-47.62"/>
</g>
</g>
</svg>
